<?xml version="1.0" encoding="utf-8"?>
<!-- Generator: Adobe Illustrator 23.0.5, SVG Export Plug-In . SVG Version: 6.00 Build 0)  -->
<svg version="1.1" id="Capa_1" xmlns="http://www.w3.org/2000/svg" xmlns:xlink="http://www.w3.org/1999/xlink" x="0px" y="0px"
	 viewBox="0 0 260.7 134.1" style="enable-background:new 0 0 260.7 134.1;" xml:space="preserve">
<style type="text/css">
	.st0{fill:none;stroke:#000000;stroke-width:0.8513;stroke-miterlimit:10;}
	.st1{fill:none;stroke:#C288DF;stroke-width:4;stroke-linecap:round;stroke-linejoin:round;stroke-miterlimit:10;}
	.st2{fill:none;stroke:#000000;stroke-miterlimit:10;}
	.st3{fill:none;stroke:#99FFFF;stroke-width:3;stroke-linecap:round;stroke-linejoin:round;stroke-miterlimit:10;}
	.st4{fill:none;stroke:#99FFFF;stroke-width:4;stroke-linecap:round;stroke-linejoin:round;stroke-miterlimit:10;}
	.st5{fill:none;stroke:#FDF57A;stroke-width:4;stroke-linecap:round;stroke-linejoin:round;stroke-miterlimit:10;}
	.st6{fill:none;stroke:#FF614D;stroke-width:4;stroke-linecap:round;stroke-linejoin:round;stroke-miterlimit:10;}
	.st7{fill:none;stroke:#39B54A;stroke-width:4;stroke-linecap:round;stroke-linejoin:round;stroke-miterlimit:10;}
	.st8{fill:none;stroke:#000000;stroke-width:1.8406;stroke-miterlimit:10;}
	.st9{fill:none;stroke:#000000;stroke-width:0.8409;stroke-linecap:round;stroke-miterlimit:10;}
	.st10{fill:none;stroke:#000000;stroke-width:3;stroke-linecap:round;stroke-miterlimit:10;}
	.st11{fill:none;stroke:#99FFFF;stroke-width:6.6043;stroke-linecap:round;stroke-linejoin:round;stroke-miterlimit:10;}
	.st12{fill:none;stroke:#99FFFF;stroke-width:6.9442;stroke-linecap:round;stroke-linejoin:round;stroke-miterlimit:10;}
	.st13{fill:#FFFFFF;}
	.st14{fill:none;stroke:#000000;stroke-width:4.3705;stroke-linecap:round;stroke-miterlimit:10;}
	.st15{fill:none;stroke:#C288DF;stroke-width:4.6373;stroke-linecap:round;stroke-linejoin:round;stroke-miterlimit:10;}
	.st16{fill:none;stroke:#99FFFF;stroke-width:4.1303;stroke-linecap:round;stroke-linejoin:round;stroke-miterlimit:10;}
	.st17{fill:none;stroke:#FDF57A;stroke-width:5.507;stroke-linecap:round;stroke-linejoin:round;stroke-miterlimit:10;}
	.st18{fill:none;stroke:#C288DF;stroke-width:6.3844;stroke-linecap:round;stroke-linejoin:round;stroke-miterlimit:10;}
	.st19{fill:none;stroke:#99FFFF;stroke-width:5.7098;stroke-linecap:round;stroke-linejoin:round;stroke-miterlimit:10;}
	.st20{fill:none;stroke:#FF614D;stroke-width:5.7098;stroke-linecap:round;stroke-linejoin:round;stroke-miterlimit:10;}
	.st21{fill:none;stroke:#99FFFF;stroke-width:5.6394;stroke-linecap:round;stroke-linejoin:round;stroke-miterlimit:10;}
	.st22{fill:none;stroke:#FDF57A;stroke-width:7.5191;stroke-linecap:round;stroke-linejoin:round;stroke-miterlimit:10;}
	.st23{fill:none;stroke:#000000;stroke-width:1.6509;stroke-miterlimit:10;}
</style>
<path id="Trazado_57" class="st13" d="M110.9,19.7c-0.2-4.2,2.5-7.9,6.6-8.9c3.8-0.8,7.1,1.9,7.4,6c0.2,4.1-2.5,7.9-6.5,8.9
	C114.5,26.5,111.2,23.8,110.9,19.7z M31.7,113.2c4.6,0.6,11.4,1.5,16.4-4.5c-0.8,11.1-7.4,18.8-17.6,18.5c-10.2-0.3-16.5,0-20.7,5.6
	l-0.9,1.3c0.9-10.5,4-17.1,12.4-19.7C13.8,113-5.5,100.3,1.5,62.1c4.5-24.5,17.4-38.4,28.3-42.5c-3.6,3.8-5.5,6.5-9.3,13.7
	C9.1,55.7,10.3,96.1,28.4,93.1c18.1-3.1,26.4-32.2,24-52.7c-2.4-20.8-15.6-12.8-18.4-3c3.8-4.6,14-1,11.4,19.4
	c-3.6,27.7-26.6,31-24.5,2c2.2-26,13.4-37,21.8-39.5c8.9-2.5,28.2,8.8,19.8,52.4C57.8,91.1,49.7,107.8,31.7,113.2z M32,48
	c0.1,2.8,1.7,4.5,3.4,3.8c1.8-0.7,3.1-3.7,3-6.5c-0.1-2.9-1.6-4.6-3.4-3.8C33.3,42.3,31.9,45.2,32,48z M240.6,64.1
	c-6.2,1.1-9.3-1.9-10.8-5.5c-1.8,2.6-3.9,4.9-6.2,7v0c-5.4,4.1-12,4.8-15.1,2.9c-8.1-4.9-6.8-19.6-6.8-19.6s-5.9,15.6-11.3,22.6
	c-6.3,8.3-11.5,3.6-10.3-4.1c1.8-11.2,5.9-38.3,5.9-38.3c1-5.7-1.6-5.6-3.8-1.5c-1.9,3.2-3.2,6.8-3.6,10.6l-5.8,39l-12.1,2.6l7-48.2
	c0.7-3.9-2-3.8-4.4-0.1c-1.3,2.3-2.3,4.7-2.8,7.3c0,0-5.8,41.2-6.2,42.3l-12.2,2.6l4-27.1c-3.2,9.7-7.9,19.8-12.8,26.7
	c-5.4,7.5-11,5.2-10.3-1.2l2.5-20.4c-1.8,5.8-8.3,19.9-13.4,26.7c-5.4,7.3-10.2,3.9-9.6-2.1l2.8-20.8c-5,12.5-9.6,21.6-13.5,27.3
	c-4.6,6.7-10.4,4.2-9.6-2.4l1.4-13.6c-1.7,5.2-7.2,15.3-10,19.4c-4.3,6.4-11.6,7.4-9.7-5.1l7.3-51.2l12.1-2.6
	c-0.4,1.9-5.3,37.3-6,41.3c-0.7,3.9,1.6,2.7,2.9,0.6c2.5-4.7,4.3-9.7,5.4-14.9l4-28.3l12.1-2.6c-0.1,0.4-4.2,31.6-5.5,39
	c-1.3,7.1,1.9,5.1,3.7,1.4c2-3.9,4.9-13,6.5-18.2c1.6-5.1,3.8-24,3.8-24l12.1-2.6c-0.8,6-5.6,39.7-5.6,39.8
	c-0.9,5.2,1.3,4.7,3.1,1.5c5-9.4,7.6-21.9,8.4-25.6c0.8-3.7,5.4-37.9,5.4-37.9l11.8-2.5c-0.5,2.9-8.3,58.8-8.3,58.8
	c-1.2,8.1,2.4,5.3,4.4,0.3c1-2.6,5.5-14.8,5.8-15.8l3.6-24.7l11.8-2.5l-1.6,10.6c1.8-3.2,3.9-6.2,6.3-9c6-6.8,11.7-8,12.3,0.4
	c0.1,1.7,0.1,3.4,0,5.1c1.4-2.6,3-5.2,4.8-7.6c8.1-11.1,15.4-9,14.6,0.7c0,0-4.5,29.8-4.8,31.7c-0.5,3.5,1,5.3,2.8,2.4
	c0,0,3.4-6.1,4.3-11.2c2.5-15,8.2-34.8,22.7-37.5c14.4-2.8,13.5,17.6,11.2,23.8c-2.3,6.1-6.6,15-20.5,16.3c0,0-0.4,2.7-0.4,3
	c-0.4,3.1-0.6,6.2-0.5,9.3c0.3,2.5,2.6,8.6,8.9,5.1c1.5-0.8,3.6-3.4,6.2-6.9c-0.4-1.4-0.6-2.8-0.7-4.3c0-0.3-0.1-0.6-0.1-0.8
	c0-0.4,0-0.8,0-1.2c0-0.2,0-0.3,0-0.3l0,0c0.4-4,3.3-7.3,7.2-8.3c1.1-0.2,2.2-0.2,3.2,0.1c2.3-3.7,4.5-7.5,6.5-11
	c-2.8-5.7-4.1-12.1-3.6-18.4c1.1-11,9.9-12.3,9.9-12.3s6.3-1.7,7.6,4.6c0.8,3.8-2.3,9.9-4.8,14c-0.1,0.1-0.2,0.3-0.3,0.6
	c2.2,5,6.1,14.5,6.5,21.5C261.2,51.1,253.9,61.9,240.6,64.1z M215.3,44.2c0,0,1.1-0.1,3-0.5c2.5-0.5,3.9-3.4,4.2-5.7
	c0,0,3.4-22.7,3.6-25.5c0-0.4,0-0.8,0-1.2c0-1.2-0.8-2.2-1.9-2.4c-0.6,0-1.2,0.1-1.7,0.3c-0.4,0.2-0.8,0.4-1.1,0.7
	c-0.7,0.7-1.2,1.6-1.5,2.6c-0.3,0.9-0.5,1.9-0.6,2.8C219.2,15.4,216.5,34.6,215.3,44.2z M251.1,47.2c-0.3-3.4,0-4.9-4.7-14.3
	c-1.8,3.1-3.8,6.4-5.9,9.8c1.9,1.3,3.1,3.5,3.1,5.8c0.2,4.6-2.8,8.6-7.2,9.8c-1.8,0.4-3.7,0-5.2-1.1c1.4,3.6,5.3,5.5,9,4.6
	C248,60.2,251.5,52.5,251.1,47.2z M253.4,16.8c0,0,4.1-8.2,3.3-11.4c-0.2-1.6-1.6-2.7-3.2-2.5c-0.4,0-0.8,0.2-1.1,0.4
	c-5,2.7,0.3,13.2,0.3,13.2c0.1,0.2,0.2,0.5,0.4,0.8L253.4,16.8z"/>
</svg>
