<?xml version="1.0" encoding="utf-8"?>
<!-- Generator: Adobe Illustrator 23.0.5, SVG Export Plug-In . SVG Version: 6.00 Build 0)  -->
<svg version="1.1" id="Capa_1" xmlns="http://www.w3.org/2000/svg" xmlns:xlink="http://www.w3.org/1999/xlink" x="0px" y="0px"
	 viewBox="0 0 164 164" style="enable-background:new 0 0 164 164;" xml:space="preserve">
<style type="text/css">
	.st0{fill:none;stroke:#000000;stroke-width:0.8513;stroke-miterlimit:10;}
	.st1{fill:none;stroke:#C288DF;stroke-width:4;stroke-linecap:round;stroke-linejoin:round;stroke-miterlimit:10;}
	.st2{fill:none;stroke:#000000;stroke-miterlimit:10;}
	.st3{fill:none;stroke:#99FFFF;stroke-width:3;stroke-linecap:round;stroke-linejoin:round;stroke-miterlimit:10;}
	.st4{fill:none;stroke:#99FFFF;stroke-width:4;stroke-linecap:round;stroke-linejoin:round;stroke-miterlimit:10;}
	.st5{fill:none;stroke:#FDF57A;stroke-width:4;stroke-linecap:round;stroke-linejoin:round;stroke-miterlimit:10;}
	.st6{fill:none;stroke:#FF614D;stroke-width:4;stroke-linecap:round;stroke-linejoin:round;stroke-miterlimit:10;}
	.st7{fill:none;stroke:#39B54A;stroke-width:4;stroke-linecap:round;stroke-linejoin:round;stroke-miterlimit:10;}
	.st8{fill:none;stroke:#000000;stroke-width:1.8406;stroke-miterlimit:10;}
	.st9{fill:none;stroke:#000000;stroke-width:0.8409;stroke-linecap:round;stroke-miterlimit:10;}
	.st10{fill:none;stroke:#000000;stroke-width:3;stroke-linecap:round;stroke-miterlimit:10;}
	.st11{fill:none;stroke:#99FFFF;stroke-width:6.6043;stroke-linecap:round;stroke-linejoin:round;stroke-miterlimit:10;}
	.st12{fill:none;stroke:#99FFFF;stroke-width:6.9442;stroke-linecap:round;stroke-linejoin:round;stroke-miterlimit:10;}
	.st13{fill:#FFFFFF;}
	.st14{fill:none;stroke:#000000;stroke-width:4.3705;stroke-linecap:round;stroke-miterlimit:10;}
	.st15{fill:none;stroke:#C288DF;stroke-width:4.6373;stroke-linecap:round;stroke-linejoin:round;stroke-miterlimit:10;}
	.st16{fill:none;stroke:#99FFFF;stroke-width:4.1303;stroke-linecap:round;stroke-linejoin:round;stroke-miterlimit:10;}
	.st17{fill:none;stroke:#FDF57A;stroke-width:5.507;stroke-linecap:round;stroke-linejoin:round;stroke-miterlimit:10;}
	.st18{fill:none;stroke:#C288DF;stroke-width:6.3844;stroke-linecap:round;stroke-linejoin:round;stroke-miterlimit:10;}
	.st19{fill:none;stroke:#99FFFF;stroke-width:5.7098;stroke-linecap:round;stroke-linejoin:round;stroke-miterlimit:10;}
	.st20{fill:none;stroke:#FF614D;stroke-width:5.7098;stroke-linecap:round;stroke-linejoin:round;stroke-miterlimit:10;}
	.st21{fill:none;stroke:#99FFFF;stroke-width:5.6394;stroke-linecap:round;stroke-linejoin:round;stroke-miterlimit:10;}
	.st22{fill:none;stroke:#FDF57A;stroke-width:7.5191;stroke-linecap:round;stroke-linejoin:round;stroke-miterlimit:10;}
	.st23{fill:none;stroke:#000000;stroke-width:1.6509;stroke-miterlimit:10;}
</style>
<g>
	<path class="st13" d="M128.9,112.7c1.7,0,3.3,0,5,0c0.1,0,0.3-0.1,0.5-0.1c-0.3-0.8-0.6-1.4-0.9-2.1c-0.8-1.8-1.8-3.5-2.5-5.3
		c-1.4-3.3-2.9-6.5-4.7-9.7c-2.3-4.2-4.3-8.6-6.2-13.1c-1-2.4-1.9-4.9-3-7.3c-0.5-1.3-1.2-2.5-1.8-3.7c-1-2.2-1.9-4.3-2.9-6.5
		c-1.1-2.5-2.2-5.1-3.3-7.6c-1.3-2.8-2.5-5.6-3.8-8.4c-0.8-1.7-1.5-3.3-2.3-5c-1.1-2.4-2.2-4.8-3.3-7.1c-1.4-2.8-2.9-5.5-4.2-8.2
		c-1.7-3.6-3.2-7.3-4.8-10.9c-0.9-1.9-1.7-3.9-2.7-5.7c-1.5-2.8-2.7-5.7-3.9-8.7c-0.4-1-0.7-1.9-1.1-2.9C83,0.2,82.7,0,82.6,0
		c-0.2,0-0.4,0.3-0.5,0.5c-0.2,0.3-0.3,0.6-0.5,1c-0.4,0.9-0.9,1.7-1.2,2.7c-1.2,3.2-2.5,6.3-4.1,9.3c-0.6,1.2-1.4,2.3-2,3.5
		c-1.1,2.2-2.1,4.4-3.2,6.6c-1,2.1-2,4.1-3,6.2c-0.8,1.7-1.6,3.3-2.4,5c-1.6,3.3-3.3,6.7-4.9,10c-1.4,3.1-2.7,6.2-4,9.3
		c-0.3,0.6-0.5,1.2-0.8,1.8c-0.4,1-0.7,2.1-1.2,3.1c-1.1,2.3-2.4,4.6-3.6,6.9c-1.2,2.4-2.4,4.9-3.6,7.3c-1.3,2.7-2.5,5.3-3.8,8
		c-1.1,2.3-2.3,4.5-3.4,6.7c-1.1,2.2-2.1,4.5-3.1,6.7c-0.5,1.2-1,2.4-1.6,3.6c-1,2.2-2.1,4.4-3.1,6.6c-1.1,2.3-1.8,4.7-3.2,6.9
		c-0.6,0.9-0.3,1.3,0.8,1.2c1.1,0,2.1-0.1,3.2-0.1c0.4,0,0.7,0.1,1.1,0c2.1-0.2,4.2-0.2,6.2,0c1.9,0.2,3.7,0.3,5.6,0.1
		c0.9-0.1,1.9-0.1,2.8-0.1c0.8,0,1.3-0.3,1.6-1c0.7-1.6,1.5-3.1,2.2-4.7c0.8-1.7,1.5-3.4,2.3-5c1.2-2.6,2.5-5.1,3.7-7.7
		c0.3-0.6,0.6-0.6,1.1-0.6c1.1,0.1,2.3,0.2,3.4,0.1c1.2-0.1,2.3-0.1,3.5-0.1c1.7,0.1,3.5,0.1,5.2,0.1c2.4,0,4.7-0.1,7.1-0.2
		c1.5,0,3.1,0,4.6,0c1.6,0,3.3-0.3,4.9-0.1c3.1,0.2,6.1,0.1,9.2-0.1c1.4-0.1,2.8-0.2,4.2-0.2c0.7,0,1.2,0.3,1.5,1
		c0.4,1.1,0.9,2.3,1.4,3.3c1.4,3,2.8,5.9,4.2,8.8c0.9,2,1.8,4,2.6,6.1c0.1,0.2,0.3,0.5,0.4,0.5c0.6,0.1,1.2,0.1,1.8,0.1
		c0.5,0,0.9,0,1.4,0c0.8,0,1.6,0,2.4-0.1c1.4-0.1,2.8-0.2,4.1-0.2C124.6,112.7,126.7,112.7,128.9,112.7z M74.8,60.9
		c0.5-1.2,1-2.5,1.5-3.7c0.1-0.3,0.2-0.4,0.5-0.3c0.8,0.1,1.6,0.3,2.3,0.3c1,0,2,0,3,0c1.9-0.1,3.7-0.2,5.6-0.3
		c0.1,0,0.3,0.2,0.4,0.3c0.5,1.3,0.9,2.5,1.4,3.8c0.7,1.9,1.5,3.7,2.2,5.5c0.8,2,1.5,4,2.3,5.9c0.2,0.6,0.5,1.1,0.8,1.7
		c0.1,0.3,0.1,0.6-0.3,0.6c-1.9,0.2-3.8,0.4-5.7,0.5c-1.1,0.1-2.1-0.1-3.2-0.1c-1.9,0-3.9,0.1-5.8,0.1c-0.7,0-1.4,0-2.2,0
		c-1.9,0-3.8-0.1-5.6-0.1c-0.6,0-1.2,0.1-1.9,0.1c-0.6,0-1.1,0-1.7,0c-0.1-0.1-0.1-0.1-0.2-0.2c0.3-0.7,0.7-1.4,1-2.1
		c1.1-2.3,2.2-4.7,3.4-7C73.5,64.3,74.1,62.6,74.8,60.9z M118.7,108.6c-0.2,0-0.5,0-0.7,0c-0.7,0-1.4,0.1-2,0.1
		c-0.1,0-0.3-0.2-0.4-0.3c-0.9-1.8-1.9-3.7-2.8-5.6c-1.6-3.3-3.1-6.6-4.7-9.9c-0.5-1-0.9-2.1-1.4-3.2c-0.1-0.2-0.3-0.3-0.5-0.3
		c-0.7-0.1-1.4-0.1-2.1-0.1c-3.8,0-7.5,0.1-11.3,0.2c-1.8,0-3.6,0-5.4,0c-2,0-3.9,0.1-5.9,0.1c-1.7,0-3.5-0.2-5.2-0.2
		c-3.1,0.1-6.1,0.4-9.2,0.4c-2.2,0.1-4.3,0-6.5-0.1c-1,0-2.1-0.2-3.1-0.3c-0.3,0-0.7,0.2-0.8,0.5c-0.8,1.5-1.6,3-2.2,4.5
		c-0.7,1.7-1.2,3.6-2,5.3c-0.9,2.1-2,4.1-3,6.1c-0.3,0.6-0.6,1.3-1,1.9c-0.3,0.5-0.7,0.8-1.3,0.8c-2.2,0.1-4.5-0.2-6.7-0.3
		c-1-0.1-2.1,0.2-3.1,0.2c-0.5,0-1,0-1.5,0c0.1-0.3,0.2-0.4,0.3-0.6c1-2.1,2.1-4.2,3.1-6.3c1-2.1,2.2-4.1,3.2-6.2
		c0.9-1.7,1.6-3.5,2.4-5.3c1.4-3,2.8-6,4.3-8.9c1.2-2.5,2.4-5.1,3.6-7.6c1.2-2.6,2.2-5.2,3.4-7.8c0.8-1.7,1.7-3.3,2.5-5
		c0.6-1.2,1.1-2.4,1.5-3.6c0.2-0.4,0.4-0.5,0.8-0.4c1.1,0,2.2,0.1,3.3,0.1c1.4,0,2.8-0.1,4.2-0.1c1,0,2,0,3,0.1
		c0.1,0,0.2,0.1,0.3,0.1c-1.1,2.7-2.2,5.4-3.4,8.1c-1,2.4-2.1,4.7-3.2,7c-0.9,1.8-1.8,3.6-2.7,5.4c-0.2,0.4-0.3,0.9-0.5,1.3
		c-0.1,0.5,0,0.6,0.5,0.6c1.7-0.1,3.5-0.3,5.2-0.2c2,0.1,4.1,0.4,6.1,0.5c1.5,0.1,3.1,0,4.6-0.1c1.1,0,2.3-0.1,3.4-0.1
		c1.3,0,2.6,0,3.9-0.1c1.6,0,3.3,0,4.9-0.1c2.2,0,4.4-0.1,6.7-0.1c1,0,2,0.1,3,0.1c0.2,0,0.5,0,0.6-0.1c0.7-0.3,0.8-0.5,0.6-1.2
		c-0.5-1.4-1-2.9-1.6-4.2c-1.4-3.3-2.9-6.7-4.3-10C94.7,61.9,93.9,60,93,58c-0.2-0.3-0.3-0.7-0.4-1.2c1.6,0,3-0.1,4.5,0
		c2,0.1,3.9,0.2,5.9,0.3c0.4,0,0.9-0.1,1.2-0.2c0.4,0.8,0.9,1.5,1.2,2.3c1,2.2,1.9,4.4,2.9,6.6c0.5,1.2,1.2,2.3,1.7,3.5
		c1,2.2,1.9,4.5,2.8,6.8c1,2.3,1.9,4.7,2.9,7c1.1,2.5,2.4,4.9,3.6,7.4c0.9,1.8,1.9,3.5,2.7,5.4c0.9,1.8,1.6,3.8,2.4,5.6
		c0.7,1.5,1.3,3.1,2,4.6c0.3,0.7,0.6,1.3,0.9,2c0.1,0.2,0.1,0.4,0.2,0.6c-0.3,0-0.5,0-0.8,0c-1.7,0-3.5,0.1-5.2,0.1
		C120.6,108.7,119.6,108.6,118.7,108.6z"/>
	<path class="st13" d="M134.8,157.8c0-3-0.1-6-0.2-9c0-0.1-0.2-0.3-0.2-0.3c-0.5,0-1,0-1.6,0.1c-0.1,0-0.3,0.2-0.3,0.4
		c-0.1,1.9-0.2,3.8-0.3,5.6c0,0.9,0,1.8,0,2.7c0,0.4,0,0.9,0,1.3c0,0-0.1,0-0.1,0c-3.4-3.5-6.8-7.1-10.1-10.6c0,0-0.1,0.1-0.1,0.1
		c0,0.2,0,0.3,0,0.5c0,2,0.1,4.1,0.1,6.1c0,2.7-0.1,5.4-0.2,8.1c0,0.3,0,0.6,0.4,0.6c0.5,0,1,0,1.5,0c0.1,0,0.3-0.2,0.3-0.3
		c0-2,0.1-3.9,0.1-5.9c0-0.8-0.1-1.7-0.1-2.5c0-0.4,0.1-0.9,0.1-1.4c0.2,0.1,0.3,0.2,0.3,0.2c0.9,1,1.9,1.9,2.8,2.9
		c2,2.2,4.1,4.3,6.1,6.5c0.4,0.4,0.8,0.8,1.2,1.1c0.1,0.1,0.2,0.1,0.4,0.1c0-0.1,0-0.2,0-0.3c0-0.2-0.1-0.4-0.1-0.6
		C134.8,161.3,134.8,159.6,134.8,157.8z"/>
	<path class="st13" d="M73.7,139.2c0-0.4-0.1-0.6-0.1-0.9c0-0.9,0-1.9,0-2.8c0-1,0.2-1.9,0.2-2.9c0-2.5,0-5.1-0.1-7.6
		c0-1.4-0.3-1.6-1.7-1.5c0,0,0,0,0,0c-0.1,0.1-0.4,0.3-0.4,0.4c-0.1,2.7-0.1,5.4-0.2,8.1c0,0.5,0,1.1,0,1.6c0,0-0.1,0-0.1,0
		c-0.6-0.6-1.2-1.2-1.8-1.8c-1.4-1.4-2.7-2.8-4.1-4.1c-1.4-1.5-2.8-2.9-4.2-4.4c-0.1-0.1-0.3-0.2-0.4-0.1c-0.1,0-0.1,0.2-0.1,0.4
		c0,1.6-0.1,3.2-0.1,4.8c0,1.5,0,3.1,0,4.6c0,1.6-0.1,3.3-0.2,4.9c0,0.4,0.1,0.6,0.5,0.6c0.5,0,0.9,0,1.4,0c0.3,0,0.4-0.1,0.5-0.4
		c0-0.5,0-1,0-1.5c0-2.7,0.1-5.3,0.1-8c0-0.1,0-0.2,0.1-0.3c0.1,0.1,0.2,0.2,0.3,0.3c0.7,0.7,1.5,1.5,2.2,2.2
		c1.2,1.2,2.3,2.5,3.4,3.7c1.5,1.5,2.9,3,4.4,4.6C73.4,139.2,73.5,139.2,73.7,139.2z"/>
	<path class="st13" d="M44.4,149.4c-1-0.6-2.1-0.9-3.3-1.1c-1.2-0.2-2.5-0.1-3.6,0.3c-1.5,0.6-2.8,1.5-3.7,2.9
		c-1.4,2-1.9,4.2-1.2,6.5c0.7,2.4,2.6,3.9,4.7,5c0,0,0.1,0,0.1,0c1,0.2,2,0.4,3.1,0.6c1.3,0,2.8-0.3,3.8-1.1
		c0.8-0.6,1.5-1.2,2.2-1.8c0.3-0.2,0.5-0.6,0.6-0.9c1-2.3,1-4.6,0.1-7C46.7,151.4,45.8,150.2,44.4,149.4z M41.6,161.5
		c-1.3,0.3-2.7,0.2-3.9-0.7c-0.7-0.5-1.4-1.1-2-1.7c-0.7-0.8-1.1-2.1-1.1-3.2c0-2.6,1.4-4.1,3.7-5.1c1.2-0.5,2.4-0.6,3.7-0.1
		c2.4,0.9,3.6,2.7,3.7,5C45.8,158.2,44.5,160.9,41.6,161.5z"/>
	<path class="st13" d="M83.8,138.8c1.1,0,2.2-0.1,3.2-0.3c1.1-0.2,2.2-0.4,3.1-0.8c1.2-0.5,2.2-1.5,2.9-2.6c1.2-2,1.3-4.1,0.7-6.3
		c-0.5-1.5-1-2.8-2.4-3.7c-1.2-0.7-2.5-1.4-3.9-1.4c-1.4,0-2.9,0.1-4.3,0.1c-0.4,0-0.5,0.1-0.5,0.5c0,1.3-0.1,2.7-0.1,4
		c0,2.9,0,5.7,0,8.6c0,0,0,0,0,0c0,0.3,0,0.5,0,0.8C82.5,138.8,82.9,138.9,83.8,138.8z M85,128.4c0-0.7,0-1.3-0.1-2
		c0-0.5,0-0.7,0.6-0.6c1,0.2,2.1,0.1,3,0.4c1.6,0.5,2.8,1.5,3.1,3.2c0.3,1.3,0.4,2.6-0.2,3.9c-0.7,1.8-2,2.9-4,3.2
		c-0.6,0.1-1.3,0.2-1.9,0.2c-0.2,0-0.5,0-0.8-0.1C85.2,133.9,85,131.1,85,128.4z"/>
	<path class="st13" d="M96.4,155.6c-1.1,0.1-2.2,0.1-3.3,0.2c-0.5,0-1,0-1.5,0c-0.1,0-0.4,0.1-0.4,0.2c-0.4,1.1,0.1,1.7,1.2,1.7
		c0,0,0.1,0,0.1,0c0.8,0,1.5-0.1,2.3-0.1c0,0.3,0,0.6-0.1,0.9c-0.6,2.6-3.6,3.8-6,3c-2.1-0.7-3.2-2.3-3.8-4.4
		c-0.2-0.7-0.3-1.6,0-2.3c0.8-2.4,2.4-4,5-4.2c1.8-0.2,3.6,0.2,4.8,1.8c0.1,0.1,0.4,0.1,0.5,0.1c0.3-0.2,0.6-0.5,0.8-0.7
		c0.5-0.5,0.5-0.7-0.1-1.2c-0.3-0.3-0.7-0.5-1-0.8c-1.6-1.3-3.6-1.5-5.5-1.4c-1.6,0.1-2.9,0.8-4.2,1.8c-0.7,0.6-1.5,1.2-1.7,2.2
		c-0.1,0.6-0.3,1.1-0.5,1.6c-0.3,1.3-0.5,2.5-0.2,3.8c0.5,2,1.5,3.6,3.3,4.7c1.7,1,3.6,1.6,5.7,1.1c0.8-0.2,1.7-0.4,2.4-0.9
		c2.1-1.4,3-3.5,3.1-6C97.3,155.7,97.2,155.6,96.4,155.6z"/>
	<path class="st13" d="M52.7,137.2c-0.6-1.3-1.4-2.5-1.9-3.8c-1.2-2.7-2.4-5.3-3.6-8c-0.3-0.6-0.6-1.3-0.9-1.9
		c-0.1-0.1-0.2-0.2-0.3-0.2c-0.1,0-0.2,0.1-0.3,0.3c-0.1,0.1-0.1,0.2-0.2,0.4c-0.3,0.8-0.7,1.5-1,2.3c-0.7,1.5-1.5,3-2.2,4.5
		c-0.9,1.8-1.7,3.7-2.6,5.6c-0.3,0.7-0.7,1.5-1,2.2c0.1,0.1,0.1,0.1,0.2,0.2c0.4,0,0.9,0.1,1.3,0.1c0.3,0,0.7,0.1,0.9-0.1
		c0.2-0.1,0.2-0.5,0.3-0.8c0.3-0.8,0.7-1.6,1-2.4c0.1-0.3,0.2-0.4,0.5-0.4c0.9,0,1.8,0.1,2.7,0.1c1,0,2,0,2.9,0
		c0.3,0,0.5,0.1,0.6,0.4c0.5,0.9,1,1.9,1.5,2.8c0.1,0.2,0.4,0.3,0.6,0.3c0.4,0,0.9,0,1.3,0c0.3,0,0.5-0.2,0.4-0.5
		C52.9,137.8,52.8,137.5,52.7,137.2z M44.1,132.5c0.6-1.4,1.1-2.9,1.7-4.3c0.1,0,0.1,0,0.2,0c0.6,1.4,1.3,2.8,1.9,4.3
		C46.6,132.5,45.4,132.5,44.1,132.5z"/>
	<path class="st13" d="M62.9,159.9c-0.6-0.9-1.3-1.7-2-2.6c0.3-0.1,0.4-0.2,0.6-0.3c1.2-0.5,2.2-1.2,2.6-2.5c0.2-0.8,0.2-1.7,0-2.5
		c-0.4-1.4-1.1-2.4-2.6-2.7c-1-0.2-2.1-0.4-3.1-0.5c-0.7-0.1-1.4,0-2.1,0c-0.1,0-0.4,0.3-0.4,0.4c0,1,0,2,0.1,3.1
		c0.1,1.8,0.1,3.7,0.2,5.5c0,1.9,0,3.8,0,5.8c0.5,0,1.1,0.1,1.7,0.1c0.1,0,0.3-0.2,0.3-0.3c0.1-0.2,0-0.4,0-0.6
		c0-1.6-0.1-3.2-0.1-4.7c0-0.1,0.1-0.4,0.2-0.4c0.2,0,0.4,0.1,0.5,0.2c0.3,0.3,0.5,0.7,0.7,1.1c0.9,1.5,1.9,2.9,2.8,4.4
		c0.1,0.1,0.3,0.3,0.4,0.3c0.6,0,1.2,0,1.8-0.1c0.3,0,0.5-0.3,0.3-0.6C64.1,161.8,63.6,160.8,62.9,159.9z M58,155.4
		c0-1.5,0-2.9,0-4.4c0-0.3,0.1-0.5,0.4-0.4c0.8,0.1,1.6,0.1,2.4,0.3c0.6,0.1,1,0.5,1,1.2c0,0.3,0.1,0.7,0.2,1
		c0.1,0.8-0.2,1.3-0.9,1.7C60.1,155.3,59.1,155.5,58,155.4z"/>
	<path class="st13" d="M109.6,138.7c0.8,0,0.9-0.2,1-1c0-1.3,0-1.3-1.3-1.3c-1.3,0-2.6,0.1-3.9,0.1c-0.3,0-0.6,0-0.6-0.4
		c0-1.5,0-3.1,0-4.7c1.4,0,2.9,0,4.4,0c1.3,0,1.4-0.2,1.2-1.5c0-0.2-0.2-0.4-0.4-0.4c-0.7-0.1-1.4-0.1-2.1-0.1c-1.1,0-2.1,0-3.2,0
		c0-1.2,0-2.4,0-3.7c1.7-0.1,3.4-0.2,5.1-0.3c0.2,0,0.5-0.1,0.7-0.3c0.4-0.4,0.3-1,0.1-1.4c-0.2-0.4-0.6-0.4-1-0.4
		c-0.3,0-0.5,0-0.8,0c-1.9,0.1-3.8,0.2-5.7,0.2c-0.6,0-0.7,0.1-0.7,0.7c0,0.7,0.1,1.5,0,2.2c-0.1,2.3-0.2,4.6-0.2,6.9
		c0,1.5,0,3.1,0.1,4.6c0,0.3,0.2,0.5,0.5,0.6c0.9,0.1,1.9,0.3,2.8,0.3C107,138.9,108.3,138.7,109.6,138.7z"/>
	<path class="st13" d="M113.2,161.9c0-0.4-0.2-0.5-0.5-0.5c-0.6,0-1.1,0-1.7,0c-0.5,0-0.9-0.1-1.4-0.1c-0.8,0-1.5,0-2.3,0
		c0-1.7,0-3.3,0-4.9c1.8-0.1,3.5-0.2,5.3-0.3c0.3,0,0.5,0,0.5-0.3c0-0.4-0.1-0.8-0.1-1.3c0-0.4-0.2-0.5-0.6-0.4
		c-1.6,0.1-3.1,0.2-4.7,0.3c-0.3,0-0.4-0.1-0.4-0.4c0-1.1-0.1-2.2-0.2-3.5c1.7,0,3.3,0,4.9,0c1.1,0,1.1,0.1,1.1-1c0-0.1,0-0.2,0-0.3
		c0-0.6,0-0.6-0.6-0.6c-1.4,0-2.8,0-4.1,0c-0.9,0-1.7,0-2.6,0c-0.4,0-0.8,0.2-0.7,0.7c0,1,0,2,0.1,3c0,2.1,0.1,4.3,0.1,6.4
		c0,1.4,0,2.8,0,4.1c0,0.3,0,0.6,0.5,0.6c1.1,0,2.2,0.1,3.3,0.1c1.2,0,2.4,0.1,3.6,0.1c0.6,0,0.7-0.2,0.6-0.8
		C113.3,162.5,113.2,162.2,113.2,161.9z"/>
	<path class="st13" d="M123.3,138.8c2.4-0.1,3.8-1.1,4.3-3.1c0.3-1.2,0.3-2.4-0.2-3.5c-0.7-1.4-1.9-2.4-3.4-3
		c-0.6-0.3-1.3-0.5-1.8-0.9c-0.6-0.4-1-1.3-0.2-2c0.6-0.5,1.2-0.8,1.9-0.8c0.6,0,1.2,0.1,1.5,0.8c0.2,0.4,0.6,0.5,1,0.3
		c0.2-0.1,0.5-0.2,0.7-0.4c0.5-0.3,0.6-1,0.1-1.3c-0.9-0.5-1.8-1.1-2.8-1.3c-1.6-0.4-3.1,0.2-4.3,1.3c-1.4,1.3-1.2,3-0.4,4.1
		c0.6,0.9,1.5,1.5,2.5,2c0.9,0.5,1.8,1,2.7,1.5c0.3,0.2,0.7,0.6,0.8,1c0.4,1.4,0,2.2-1.3,3.1c-0.9,0.5-2.3,0.3-2.9-0.5
		c-0.3-0.5-0.6-1-0.8-1.5c-0.2-0.5-0.4-0.6-0.8-0.5c-0.1,0-0.3,0-0.4,0.1c-1,0.2-1,0.2-0.7,1.2C119.4,137.2,121.1,139.1,123.3,138.8
		z"/>
	<path class="st13" d="M75,156c0-2.5,0-4.9,0-7.4c-0.6,0-1.1,0-1.7,0c-0.5,0-0.6,0.2-0.7,0.6c0,0.6-0.1,1.2-0.1,1.8
		c0,1.4,0.1,2.9,0.1,4.3c0,2.5,0.1,5.1,0.1,7.6c0,0.3,0.1,0.4,0.4,0.4c0.5,0,1-0.1,1.5,0c0.4,0.1,0.4,0,0.4-0.3
		C75.1,160.6,75.1,158.3,75,156z"/>
</g>
</svg>
