<?xml version="1.0" encoding="utf-8"?>
<!-- Generator: Adobe Illustrator 23.0.5, SVG Export Plug-In . SVG Version: 6.00 Build 0)  -->
<svg version="1.1" id="Capa_1" xmlns="http://www.w3.org/2000/svg" xmlns:xlink="http://www.w3.org/1999/xlink" x="0px" y="0px"
	 viewBox="0 0 164 164" style="enable-background:new 0 0 164 164;" xml:space="preserve">
<style type="text/css">
	.st0{fill:none;stroke:#000000;stroke-width:0.8513;stroke-miterlimit:10;}
	.st1{fill:none;stroke:#C288DF;stroke-width:4;stroke-linecap:round;stroke-linejoin:round;stroke-miterlimit:10;}
	.st2{fill:none;stroke:#000000;stroke-miterlimit:10;}
	.st3{fill:none;stroke:#99FFFF;stroke-width:3;stroke-linecap:round;stroke-linejoin:round;stroke-miterlimit:10;}
	.st4{fill:none;stroke:#99FFFF;stroke-width:4;stroke-linecap:round;stroke-linejoin:round;stroke-miterlimit:10;}
	.st5{fill:none;stroke:#FDF57A;stroke-width:4;stroke-linecap:round;stroke-linejoin:round;stroke-miterlimit:10;}
	.st6{fill:none;stroke:#FF614D;stroke-width:4;stroke-linecap:round;stroke-linejoin:round;stroke-miterlimit:10;}
	.st7{fill:none;stroke:#39B54A;stroke-width:4;stroke-linecap:round;stroke-linejoin:round;stroke-miterlimit:10;}
	.st8{fill:none;stroke:#000000;stroke-width:1.8406;stroke-miterlimit:10;}
	.st9{fill:none;stroke:#000000;stroke-width:0.8409;stroke-linecap:round;stroke-miterlimit:10;}
	.st10{fill:none;stroke:#000000;stroke-width:3;stroke-linecap:round;stroke-miterlimit:10;}
	.st11{fill:none;stroke:#99FFFF;stroke-width:6.6043;stroke-linecap:round;stroke-linejoin:round;stroke-miterlimit:10;}
	.st12{fill:none;stroke:#99FFFF;stroke-width:6.9442;stroke-linecap:round;stroke-linejoin:round;stroke-miterlimit:10;}
	.st13{fill:#FFFFFF;}
	.st14{fill:none;stroke:#000000;stroke-width:4.3705;stroke-linecap:round;stroke-miterlimit:10;}
	.st15{fill:none;stroke:#C288DF;stroke-width:4.6373;stroke-linecap:round;stroke-linejoin:round;stroke-miterlimit:10;}
	.st16{fill:none;stroke:#99FFFF;stroke-width:4.1303;stroke-linecap:round;stroke-linejoin:round;stroke-miterlimit:10;}
	.st17{fill:none;stroke:#FDF57A;stroke-width:5.507;stroke-linecap:round;stroke-linejoin:round;stroke-miterlimit:10;}
	.st18{fill:none;stroke:#C288DF;stroke-width:6.3844;stroke-linecap:round;stroke-linejoin:round;stroke-miterlimit:10;}
	.st19{fill:none;stroke:#99FFFF;stroke-width:5.7098;stroke-linecap:round;stroke-linejoin:round;stroke-miterlimit:10;}
	.st20{fill:none;stroke:#FF614D;stroke-width:5.7098;stroke-linecap:round;stroke-linejoin:round;stroke-miterlimit:10;}
	.st21{fill:none;stroke:#99FFFF;stroke-width:5.6394;stroke-linecap:round;stroke-linejoin:round;stroke-miterlimit:10;}
	.st22{fill:none;stroke:#FDF57A;stroke-width:7.5191;stroke-linecap:round;stroke-linejoin:round;stroke-miterlimit:10;}
	.st23{fill:none;stroke:#000000;stroke-width:1.6509;stroke-miterlimit:10;}
</style>
<g>
	<path class="st13" d="M86.4,68.8h5.2c0.3-2.6-1.3-5.8-3.9-6.3c-2.5-0.6-4.9,0.9-5.8,3.3c0.9-0.4,2.3-0.6,3.2,0.1
		C86.3,66.8,86.4,68,86.4,68.8z"/>
	<path class="st13" d="M92.6,143.1c-0.8-1.4-1.5-2.4-2.4-4.1c-0.6,1.8-1,3.1-1.5,4.8C90.2,143.5,91.3,143.3,92.6,143.1z"/>
	<path class="st13" d="M86.4,17.6c-2.6,0.1-4.9,2.5-4.7,5c0.1,2.6,2.4,4.7,4.9,4.6c2.5-0.1,4.7-2.3,4.7-4.8
		C91.3,19.9,89,17.6,86.4,17.6z"/>
	<path class="st13" d="M62.4,21.3c-2.5,0-4.7,2.1-4.8,4.7c0,2.8,2,4.9,4.7,4.9c2.6,0,4.7-2,4.8-4.6C67.2,23.6,65,21.3,62.4,21.3z"/>
	<path class="st13" d="M129.1,115.6c-2.7-0.3-4,1.5-5.4,3.6c2.4,2,4.8,3.9,7.1,5.9c1.9-1.8,3.3-3.6,2.4-6.2
		C132.6,117.1,131.2,115.9,129.1,115.6z"/>
	<path class="st13" d="M81.7,0C39.7,0,5.1,31.6,0.3,72.4c33.6-22.9,82-25.8,107.1-6.7c7.8,5.8,36.7,0.3,36.7,0.3
		s-13.5,19.5-35.5,21.6c22.2,6.9,22.5,11.4,22.5,11.4s-22.2-7.2-39.4,0s-36.7,1.5-47.2-2.7C27.9,99.7,14.9,114,9.5,120.9
		c13.8,25.7,41,43.2,72.3,43.2c45.3,0,82-36.7,82-82S127,0,81.7,0z M51,39.3c-0.5,2.6-3.8,5.7-6.6,6.1c-3.4,0.5-6.4-1-8-3.8
		c-1.5-2.7-1.1-6.5,1-8.8c1.5-1.7,3.4-2.5,5.8-2.6c0.6,1.8,0.3,2.7-1.5,3.1c-2.1,0.5-3.4,2.6-3.3,4.6c0.2,2.1,1.8,4,3.8,4.5
		c2.1,0.4,4.3-0.5,5.2-2.3c0.2-0.4,0.2-1,0-1.3c-0.2-0.2-1-0.3-1.2-0.1c-1.6,1.2-2.3,0.1-3.5-1.7c0.7-0.4,1.5-0.8,2.1-1.3
		c0.7-0.5,1.2-1.1,2.1-1.9c1.4,1.5,2.7,2.8,4,4.3C51,38.4,51,38.9,51,39.3z M62.4,33.7c-4.2,0.1-7.6-3.3-7.7-7.5
		c-0.1-4.4,3.2-7.7,7.6-7.8c4.1,0,7.6,3.3,7.7,7.5C70.1,30.2,66.7,33.7,62.4,33.7z M86.4,30.1c-4.2,0-7.5-3.3-7.6-7.6
		c0-4.2,3.4-7.7,7.7-7.7c4.2,0,7.5,3.4,7.5,7.6C94.2,26.8,90.8,30.1,86.4,30.1z M111.6,24.5c-0.6-0.7-2.4-1.4-2.9-1
		c-1.5,1-0.4,2.2,0.4,3.2c0.8,1,1.9,2,2.1,3.1c0.2,1.4,0.2,3.3-0.6,4.3c-0.8,0.9-2.8,1.4-4.2,1.2c-2.2-0.2-4-1.7-4.9-4.1
		c0.6-0.4,1.2-0.9,1.8-1.3c0.7,0.8,1.2,1.7,2,2.1c0.8,0.4,1.8,0.4,2.8,0.6c0-0.9,0-1.9-0.2-2.8c-0.1-0.5-0.7-0.9-1.1-1.4
		c-2.1-2.5-2.3-4.9-0.5-6.6c1.7-1.7,4.8-1.5,6.9,0.6c0.6,0.6,1.2,1.3,1.8,2.1C113.7,25.8,112.9,25.9,111.6,24.5z M131.9,39.6
		c-1.6-1.5-3.1-3-4.8-4.6c-0.6,0.8-1.1,1.7-1.8,2.7c0.9,1,2.1,2.2,3.6,3.8c-0.7,0.5-1.3,1-2,1.5c-1.3-1.2-2.6-2.4-4-3.7
		c-0.7,0.8-1.4,1.6-2.5,2.8c1.5,1.2,3.2,2.5,4.9,3.9c-0.9,1-1.4,1.5-1.9,2.1c-2.1-2.3-4.1-4.5-6.2-6.9c3.1-2.8,6.6-6,10.5-9.5
		c1.6,1.7,3.6,3.9,5.7,6.2C133,38.3,132.5,38.9,131.9,39.6z M31.9,125.7c3.8-3.4,7.4-6.7,11.2-10c0.7,0.7,1.2,1.3,2,2.1
		c-3.7,3.3-7.2,6.5-11.1,9.9C33.2,127,32.7,126.5,31.9,125.7z M56.7,131.1c-1-1.1-1.6-2.1-2.5-2.8c-0.4-0.3-1.4-0.3-1.8,0
		c-0.4,0.3-0.6,1.2-0.4,1.8c0.2,0.8,0.8,1.6,1.3,2.3c1.9,3,1.8,5.5-0.3,7c-2.1,1.5-5.4,0.6-7.3-1.9c-1.5-2-1.4-2.5,0.9-3.4
		c0.6,0.9,1.2,1.9,2,2.6c0.6,0.4,1.7,0.6,2.4,0.3c0.4-0.2,0.6-1.5,0.4-2.1c-0.3-1-1.1-1.8-1.6-2.7c-1.3-2.2-1.1-4.3,0.5-5.7
		c1.5-1.4,3.8-1.5,5.8,0.1c1.1,0.9,1.9,2.2,3,3.5C57.9,130.4,57.3,130.7,56.7,131.1z M72.8,148.4c-2.5-0.6-4.9-1.1-7.3-1.7
		c-0.3-0.1-0.7-1.1-0.6-1.6c0.8-3.9,1.7-7.9,2.7-11.8c0.1-0.4,1.2-0.9,1.8-0.9c0.3,0,0.9,1.1,0.9,1.5c-0.7,3.4-1.5,6.8-2.3,10.5
		c1.8,0.5,3.6,1,5.6,1.5C73.2,147,73,147.6,72.8,148.4z M94.8,146.7c-0.3-0.6-1.4-0.9-2.2-0.9c-1-0.1-2.1,0-3.1,0.3
		c-0.7,0.2-1.7,0.8-1.9,1.4c-0.5,1.8-1.6,1.9-3.5,1.7c1.7-5.4,3.4-10.4,5-15.5c0.2,0,0.5-0.1,0.7-0.1c2.8,4.6,5.7,9.2,8.6,13.9
		C96.8,148.1,95.7,148.3,94.8,146.7z M120.1,138.7c-4-1.4-8.1-2.7-12.5-4.3c1.6,3,2.9,5.5,4.3,8.2c-0.8,0.4-1.5,0.8-2.5,1.3
		c-2.4-4.5-4.7-8.8-7.1-13.1c0.1-0.2,0.3-0.5,0.4-0.7c4,1.3,7.9,2.6,12.4,4c-1.5-2.9-2.8-5.3-4.2-7.8c0.8-0.5,1.4-0.9,2.4-1.5
		c2.4,4.5,4.8,8.9,7.1,13.2C120.4,138.3,120.2,138.5,120.1,138.7z M135.2,124.1c-1.1,1.7-2.5,3.2-3.9,5c-3.9-3.2-7.6-6.2-11.6-9.5
		c2.6-2.7,4-6.2,8.1-6.8c3-0.4,5.5,0.5,7.2,3C136.8,118.5,137,121.4,135.2,124.1z"/>
</g>
</svg>
