<?xml version="1.0" encoding="utf-8"?>
<!-- Generator: Adobe Illustrator 23.0.5, SVG Export Plug-In . SVG Version: 6.00 Build 0)  -->
<svg version="1.1" id="Capa_1" xmlns="http://www.w3.org/2000/svg" xmlns:xlink="http://www.w3.org/1999/xlink" x="0px" y="0px"
	 viewBox="0 0 260.7 92.1" style="enable-background:new 0 0 260.7 92.1;" xml:space="preserve">
<style type="text/css">
	.st0{fill:none;stroke:#000000;stroke-width:0.8513;stroke-miterlimit:10;}
	.st1{fill:none;stroke:#C288DF;stroke-width:4;stroke-linecap:round;stroke-linejoin:round;stroke-miterlimit:10;}
	.st2{fill:none;stroke:#000000;stroke-miterlimit:10;}
	.st3{fill:none;stroke:#99FFFF;stroke-width:3;stroke-linecap:round;stroke-linejoin:round;stroke-miterlimit:10;}
	.st4{fill:none;stroke:#99FFFF;stroke-width:4;stroke-linecap:round;stroke-linejoin:round;stroke-miterlimit:10;}
	.st5{fill:none;stroke:#FDF57A;stroke-width:4;stroke-linecap:round;stroke-linejoin:round;stroke-miterlimit:10;}
	.st6{fill:none;stroke:#FF614D;stroke-width:4;stroke-linecap:round;stroke-linejoin:round;stroke-miterlimit:10;}
	.st7{fill:none;stroke:#39B54A;stroke-width:4;stroke-linecap:round;stroke-linejoin:round;stroke-miterlimit:10;}
	.st8{fill:none;stroke:#000000;stroke-width:1.8406;stroke-miterlimit:10;}
	.st9{fill:none;stroke:#000000;stroke-width:0.8409;stroke-linecap:round;stroke-miterlimit:10;}
	.st10{fill:none;stroke:#000000;stroke-width:3;stroke-linecap:round;stroke-miterlimit:10;}
	.st11{fill:none;stroke:#99FFFF;stroke-width:6.6043;stroke-linecap:round;stroke-linejoin:round;stroke-miterlimit:10;}
	.st12{fill:none;stroke:#99FFFF;stroke-width:6.9442;stroke-linecap:round;stroke-linejoin:round;stroke-miterlimit:10;}
	.st13{fill:#FFFFFF;}
	.st14{fill:none;stroke:#000000;stroke-width:4.3705;stroke-linecap:round;stroke-miterlimit:10;}
	.st15{fill:none;stroke:#C288DF;stroke-width:4.6373;stroke-linecap:round;stroke-linejoin:round;stroke-miterlimit:10;}
	.st16{fill:none;stroke:#99FFFF;stroke-width:4.1303;stroke-linecap:round;stroke-linejoin:round;stroke-miterlimit:10;}
	.st17{fill:none;stroke:#FDF57A;stroke-width:5.507;stroke-linecap:round;stroke-linejoin:round;stroke-miterlimit:10;}
	.st18{fill:none;stroke:#C288DF;stroke-width:6.3844;stroke-linecap:round;stroke-linejoin:round;stroke-miterlimit:10;}
	.st19{fill:none;stroke:#99FFFF;stroke-width:5.7098;stroke-linecap:round;stroke-linejoin:round;stroke-miterlimit:10;}
	.st20{fill:none;stroke:#FF614D;stroke-width:5.7098;stroke-linecap:round;stroke-linejoin:round;stroke-miterlimit:10;}
	.st21{fill:none;stroke:#99FFFF;stroke-width:5.6394;stroke-linecap:round;stroke-linejoin:round;stroke-miterlimit:10;}
	.st22{fill:none;stroke:#FDF57A;stroke-width:7.5191;stroke-linecap:round;stroke-linejoin:round;stroke-miterlimit:10;}
	.st23{fill:none;stroke:#000000;stroke-width:1.6509;stroke-miterlimit:10;}
</style>
<g>
	<path class="st13" d="M160.3,14c0,3.1,0,6.2,0,10c-1.7-1-2.8-1.6-3.8-2.3c-3.9-2.7-3.9-2.7-7.5,0.4c-1.5,1.3-3,2.5-4.8,4
		c-0.3-1-0.5-1.4-0.5-1.7c0.7-3.9-1.3-6.4-4.1-8.7c-2.7-2.2-5.1-4.6-7.5-7.1c-1.4-1.4-2.3-1.3-3.7,0c-5.3,5.2-10.6,10.2-16,15.3
		c-0.4,0.4-0.8,0.6-1.7,1.3c-0.3-1.9-0.6-3.5-1-5.8c-4.9,4.6-9.4,8.7-13.8,12.9c-0.4-0.5-0.8-0.8-0.8-1c0.9-5.5-4.1-6.2-7.1-8.4
		c-0.5-0.4-2.1,0.2-2.8,0.8c-4.9,3.6-9.8,7.2-14.4,11.1c-3.6,3.1-7.4,1.7-11.2,1.8c-0.4-0.5-0.7-1-1.1-1.4c0.8-0.3,1.7-0.4,2.4-0.9
		c8.1-5.9,16.3-11.9,24.3-18c1.3-1,2.3-1.1,3.7-0.1c2.1,1.5,4.4,2.8,6.5,4.3c1.3,0.9,2.2,0.9,3.4-0.2c2.5-2.2,5-4.5,7.7-6.4
		c1.3-0.9,3.2-1.7,4.7-1.6c2.9,0.1,5.1-0.7,7.2-2.8c3-3,6.3-5.5,9.3-8.5c1.7-1.6,2.8-1.8,4.6-0.1c4.7,4.4,9.7,8.5,14.4,12.8
		c1.4,1.3,2.3,1.4,3.7,0c2.5-2.6,5.3-5,7.9-7.5c1.1-1,1.9-1.1,3.1-0.2c12.8,9.6,25.6,19.1,38.4,28.6c0.5,0.4,0.8,0.9,1.6,1.9
		c-4.3,0-7.9,1.3-11.4-1.4c-8.9-6.8-17.8-13.5-26.8-20.3c-0.7-0.5-1.5-1-2.2-1.5C160.9,13.8,160.6,13.9,160.3,14z"/>
	<path class="st13" d="M8.8,80.2c0.3,3.7,0.6,7.1,1,10.9c-2.9,0.3-6.4,0.6-9.6,0.9c0.2-3.2,0.6-6.2,0.6-9.1c0.1-8.5,0.1-17,0-25.4
		c0-1.9-0.5-3.7-0.8-6c1,0,2.4-0.2,3.9-0.2c4.1,0,8.2-0.1,12.3,0.3c6,0.6,8.9,3.7,9.7,9.7c0.1,0.5,0.1,0.9,0.1,1.4
		c1,11.8-2.9,16.3-14.6,17.2C10.7,80,10.1,80.1,8.8,80.2z M9.1,71.9c4.7,0.6,7.4-0.2,7.9-2.7c0.5-2.4,0.5-5,0.1-7.4
		c-0.4-2.3-5.8-3.9-7.6-2.5c-0.2,0.2-0.4,0.6-0.4,1C9.1,64.2,9.1,68.1,9.1,71.9z"/>
	<path class="st13" d="M189.2,84.6c-3.1,0-6.4,0-9.2,0c0.2-2.6,0.6-4.9,0.6-7.2c0.1-6.8,0.1-13.6,0-20.5c0-1.8-0.4-3.6-0.7-5.7
		c2.1,0,4.5-0.2,6.8,0.1c0.9,0.1,2,1.3,2.5,2.2c2.8,5.3,5.4,10.6,8.3,16.2c0-6.3,0-12.3,0-18.4c2.7,0,5.9,0,8.8,0
		c-0.2,2-0.7,4-0.7,5.9c-0.1,7.5-0.1,14.9,0,22.4c0,1.9,0.5,3.7,0.7,5.6c-2,0-4.4,0.2-6.8-0.1c-0.9-0.1-1.8-1.2-2.3-2.1
		c-2.4-4.6-4.7-9.3-7.1-14c-0.4-0.9-1-1.7-1.7-2.5C188.7,72.8,187.2,78.7,189.2,84.6z"/>
	<path class="st13" d="M260.7,92.1c-3.9-0.4-7.2-0.7-10.8-1c0.4-1.3,1-2.3,1-3.3c0-3.3-0.9-4.3-4.3-4.6c-1.9-0.2-3.9-0.2-6.5-0.4
		c0,2.3,0,4.4,0,6.9c-3.3-0.2-6.9-0.5-10.2-0.7c2.4-9,4.8-17.9,7.1-26.7c0.7-2.8,1.4-5.6,2.2-8.4c1.4-4.7,5.3-1.7,8-2.4
		c1.9-0.5,3.3,0.2,3.8,2.5c2.7,11.4,5.5,22.7,8.2,34C259.7,89.1,260.1,90.3,260.7,92.1z M245.5,61c-0.2,0-0.4,0-0.6,0
		c-1,4.7-2.1,9.4-3.2,14.4c2.5,0,4.5,0,6.9,0C247.6,70.3,246.5,65.6,245.5,61z"/>
	<path class="st13" d="M174.1,67c-0.6,3.7-0.7,6.5-1.4,9.2c-1.4,5.3-5,8-10.6,8.3c-6.8,0.3-11.5-1.9-13.4-7c-2.5-6.6-2.4-13.4,0-20
		c1.8-4.9,6-6.6,10.9-6.7c5-0.1,9.8,0.9,11.9,6C173,60.2,173.4,64.1,174.1,67z M154.9,67.6c0.3,2.3,0.5,4.8,1.2,7.2
		c0.6,2.2,2.4,3.2,4.7,3.2c2.3-0.1,4-1.3,4.1-3.4c0.3-4.6,0.3-9.2,0-13.8c-0.2-2.4-2.2-3.6-4.6-3.6c-2.4,0-3.9,1.3-4.4,3.5
		C155.4,62.9,155.2,65.2,154.9,67.6z"/>
	<path class="st13" d="M55.5,85.8c-3.4,0.2-6.7,0.4-10.3,0.5c0.4-1,0.8-1.6,0.9-2.3c0.5-3-0.8-4.5-3.8-4.3c-0.5,0-0.9,0.1-1.4,0.1
		c-5.2,0.3-6.5,2.5-4.4,7.8c-3.5,0.3-6.8,0.5-9.9,0.7c2.8-10.9,5.4-21.6,8.2-32.3c1.4-5.3,0.6-4.6,6-4.7c0.8,0,1.7,0.1,2.5,0
		c1.9-0.2,2.8,0.6,3.3,2.5c2.3,9,4.7,18,7.2,27C54.2,82.4,54.9,83.9,55.5,85.8z M44.2,72.9c-1-4.5-2-8.6-2.9-12.7
		c-0.2,0-0.5,0.1-0.7,0.1c-0.9,4.2-1.9,8.4-2.8,12.7C40,72.9,41.9,72.9,44.2,72.9z"/>
	<path class="st13" d="M101.7,83.7c0-2,0-3.9,0-6c-2.3,0-4,0-5.8,0c-4.2,0.1-5.4,2.1-3.3,6.4c-3.5,0-6.9,0-9.9,0
		c2.7-9.5,5.6-19.3,8.1-29.2c0.8-2.9,2-3.9,5-3.7c7.6,0.3,5.6-0.9,7.7,5.9c2.3,7.4,4.2,14.9,6.4,22.3c0.4,1.4,1,2.7,1.6,4.3
		C108.2,83.7,104.9,83.7,101.7,83.7z M93.6,71.5c2.4-0.1,4.4-0.2,6.6-0.3c-1-4.2-2-8-2.9-11.8c-0.2,0-0.4,0-0.7,0
		C95.7,63.3,94.7,67.1,93.6,71.5z"/>
	<path class="st13" d="M131.5,64c3.4,0,6.5,0,8.9,0c-0.1,4.7-0.3,9.2-0.3,13.8c-0.1,4.4-0.2,4.9-4.4,5.6c-3.5,0.5-7.3,0.7-10.8,0.2
		c-5-0.6-8.5-3.9-9.1-8.9c-0.6-4.7-0.6-9.7,0-14.4c0.5-4.8,3.7-8.2,8.5-8.8c4.2-0.5,8.5-0.1,12.7,0.3c3,0.3,2,2.6,1.6,4.5
		c-0.4,2.1-1.6,1.7-3.1,1.4c-9.1-2-12.6,0.9-12.6,10.1c0,1.4,0.1,2.8,0.4,4.2c0.8,4.3,3.8,6.4,8.1,5.7c0.6-0.1,1.6-0.7,1.6-1.1
		c0.1-3.5,0-7.1-0.1-10.6C132.7,65.5,132.1,65,131.5,64z"/>
	<path class="st13" d="M81.2,58.8c-2.9-0.3-5.4-0.6-8.4-0.9c0.3,9.2-0.6,17.9,0.6,27c-2.9,0-6.3,0-9.2,0c0.3-1.8,0.7-3.7,0.8-5.7
		c0.1-6.9,0-13.8,0-21.2c-2.9,0.3-5.4,0.6-8.2,0.9c0.1,0.3-0.1,0-0.1-0.2c-0.3-7.4-0.3-7.4,7.2-7.4c4.8,0,9.5,0.1,14.3,0
		c2.3-0.1,3.3,0.6,3,3C81.1,55.9,81.2,57.4,81.2,58.8z"/>
	<path class="st13" d="M214.6,51.4c3,0,6.3,0,9.1,0c-0.2,3-0.5,6-0.6,8.9c-0.1,6.7-0.1,13.4,0.1,20.2c0,2.2,0.4,4.5,0.7,6.9
		c-2.9-0.2-6.2-0.4-9.2-0.6c0.2-2.7,0.6-5.2,0.6-7.7c0.1-7.4,0-14.8-0.1-22.1C215.3,55.3,214.9,53.5,214.6,51.4z"/>
</g>
</svg>
