<?xml version="1.0" encoding="utf-8"?>
<!-- Generator: Adobe Illustrator 23.0.5, SVG Export Plug-In . SVG Version: 6.00 Build 0)  -->
<svg version="1.1" id="Capa_1" xmlns="http://www.w3.org/2000/svg" xmlns:xlink="http://www.w3.org/1999/xlink" x="0px" y="0px"
	 viewBox="0 0 260.1 164" style="enable-background:new 0 0 260.1 164;" xml:space="preserve">
<style type="text/css">
	.st0{fill:none;stroke:#000000;stroke-width:0.8513;stroke-miterlimit:10;}
	.st1{fill:none;stroke:#C288DF;stroke-width:4;stroke-linecap:round;stroke-linejoin:round;stroke-miterlimit:10;}
	.st2{fill:none;stroke:#000000;stroke-miterlimit:10;}
	.st3{fill:none;stroke:#99FFFF;stroke-width:3;stroke-linecap:round;stroke-linejoin:round;stroke-miterlimit:10;}
	.st4{fill:none;stroke:#99FFFF;stroke-width:4;stroke-linecap:round;stroke-linejoin:round;stroke-miterlimit:10;}
	.st5{fill:none;stroke:#FDF57A;stroke-width:4;stroke-linecap:round;stroke-linejoin:round;stroke-miterlimit:10;}
	.st6{fill:none;stroke:#FF614D;stroke-width:4;stroke-linecap:round;stroke-linejoin:round;stroke-miterlimit:10;}
	.st7{fill:none;stroke:#39B54A;stroke-width:4;stroke-linecap:round;stroke-linejoin:round;stroke-miterlimit:10;}
	.st8{fill:none;stroke:#000000;stroke-width:1.8406;stroke-miterlimit:10;}
	.st9{fill:none;stroke:#000000;stroke-width:0.8409;stroke-linecap:round;stroke-miterlimit:10;}
	.st10{fill:none;stroke:#000000;stroke-width:3;stroke-linecap:round;stroke-miterlimit:10;}
	.st11{fill:none;stroke:#99FFFF;stroke-width:6.6043;stroke-linecap:round;stroke-linejoin:round;stroke-miterlimit:10;}
	.st12{fill:none;stroke:#99FFFF;stroke-width:6.9442;stroke-linecap:round;stroke-linejoin:round;stroke-miterlimit:10;}
	.st13{fill:#FFFFFF;}
	.st14{fill:none;stroke:#000000;stroke-width:4.3705;stroke-linecap:round;stroke-miterlimit:10;}
	.st15{fill:none;stroke:#C288DF;stroke-width:4.6373;stroke-linecap:round;stroke-linejoin:round;stroke-miterlimit:10;}
	.st16{fill:none;stroke:#99FFFF;stroke-width:4.1303;stroke-linecap:round;stroke-linejoin:round;stroke-miterlimit:10;}
	.st17{fill:none;stroke:#FDF57A;stroke-width:5.507;stroke-linecap:round;stroke-linejoin:round;stroke-miterlimit:10;}
	.st18{fill:none;stroke:#C288DF;stroke-width:6.3844;stroke-linecap:round;stroke-linejoin:round;stroke-miterlimit:10;}
	.st19{fill:none;stroke:#99FFFF;stroke-width:5.7098;stroke-linecap:round;stroke-linejoin:round;stroke-miterlimit:10;}
	.st20{fill:none;stroke:#FF614D;stroke-width:5.7098;stroke-linecap:round;stroke-linejoin:round;stroke-miterlimit:10;}
	.st21{fill:none;stroke:#99FFFF;stroke-width:5.6394;stroke-linecap:round;stroke-linejoin:round;stroke-miterlimit:10;}
	.st22{fill:none;stroke:#FDF57A;stroke-width:7.5191;stroke-linecap:round;stroke-linejoin:round;stroke-miterlimit:10;}
	.st23{fill:none;stroke:#000000;stroke-width:1.6509;stroke-miterlimit:10;}
</style>
<g>
	<path class="st13" d="M260.1,58c0-18.4,0-36.8-0.1-55.2c0-2.3-0.3-2.7-2.6-2.6c-4.7,0-9.4,0.2-14,0.1c-16.4-0.1-32.7-0.2-49.1-0.3
		c-22.1,0-44.2,0.1-66.4,0.1c-8.3,0-16.6-0.2-24.9-0.3c-12-0.1-24,0-36,0c-9.5,0-19,0.1-28.4,0.2C26.6,0,14.6,0.1,2.7,0.1
		c-2.2,0-2.5,0.2-2.5,2.4C0.1,9.1,0,15.7,0,22.3c0,8.8,0.1,17.6,0.2,26.4c0,10.1,0,20.2,0,30.3c0,15.7,0.1,31.5,0.1,47.2
		c0,3.4,0.5,4,4,4.1c3.8,0.1,7.6,0,11.3,0c11.7,0,23.4-0.1,35.2-0.1c8.7,0,17.5,0.1,26.2,0.1c8.7,0,17.4-0.1,26.1-0.1
		c4,0,8,0.1,12,0.1c10.2,0,20.4-0.2,30.6-0.2c9.9,0,19.9,0.1,29.8,0.1c8.9,0,17.8,0,26.7,0c7.2,0,14.3,0.1,21.5,0.2
		c6.4,0,12.7,0,19.1,0c4.8,0,9.6-0.1,14.4-0.1c1.7,0,2.7-0.6,2.6-2.5c0-1.7,0-3.5,0-5.2c0.1-10.4,0.1-20.9,0.1-31.3
		c0-8.9,0-17.8,0-26.7C260.1,62.3,260.1,60.2,260.1,58z M196,44.5c0.7-0.3,1.4-0.5,2-0.9c1.4-1,2.7-2.2,4.1-3.3
		c0.5-0.5,1.2-1,1.4-1.6c0.3-1.5,1.3-1.5,2.4-1.3c1.9,0.3,3.4,1.3,4.4,3c3.1,5,3.9,10.5,4.2,16.2c0.2,4,1,7.8,3,11.3
		c0.3,0.5,0.4,1.2,0.4,1.8c-0.2,7.4-0.5,14.9-0.6,22.3c0,1.5-0.6,2-2.2,2c-7.6,0.1-15.1,0.2-22.7,0.4c-6.8,0.2-13.6,0.4-20.5,0.7
		c-1.4,0.1-2.1-0.3-2.3-1.7c-0.1-0.7-0.3-1.3-0.5-2.1c1.4-0.3,2.7-0.6,3.9-0.9c4.7-1,9.1-2.5,13.3-4.9c4.6-2.6,6-7.4,4.1-12.3
		c-2.8-7.5-10.5-8.6-15.8-6.2c-2.7,1.2-5.1,3.1-7.6,4.7c-0.5,0.3-0.9,0.7-1.6,1.2c-0.4-1.8-0.8-3.3-1.1-4.9c-0.5-2.1-0.6-2.1-2.5-1
		c-2.8,1.7-5.6,3.2-8.4,4.8c-0.8,0.4-1.7,0.7-2.5,0.9c-1.7,0.4-3.5,0.4-4.6-1.2c-1.2-1.6-1.1-3.5,0-5.1c0.9-1.3,2.2-2.4,3.5-3.3
		c2.1-1.4,4.3-2.6,6.5-3.9c4.2-2.5,5.8-6.7,7.1-11.1c0.8-2.8,1.7-5.6,2.5-8.4c0.3-1.1,0.9-1.6,2.2-1.5c4.2,0.3,8.1-0.7,11.8-2.4
		c3.2-1.5,6.4-1.8,9.7-0.7c2.5,0.8,5,1.7,7.5,2.6c-0.6,1.5-1.3,2.9-1.6,4.3C195.5,42.8,195.9,43.7,196,44.5z M91.1,126.6
		c-3,0-4.2-0.9-5.4-3.7c-0.5-1.2-0.9-2.4-1.4-3.6c-1.2-2.4-3.8-3.8-6.1-3.3c-2.3,0.5-4.2,3-4,5.8c0.1,1.5,0.5,3,0.8,4.8
		c-2.6,0-5.1,0-7.6,0c-4.1,0-8.2,0-12.3-0.1c-0.5,0-1.2-0.5-1.4-0.9c-1.4-3.8-2.5-4.7-6.1-4.9c-2.4-0.1-5.3,1.9-6.5,4.7
		c-0.4,1.1-1,1.3-2,1.3c-2.2-0.1-4.4,0-6.8,0c0.7-2.9,1.5-5.2,3.1-7.3c1-1.3,2-2.7,2.7-4.3c1.1-2.5-0.2-4.5-2.9-5
		c-3.2-0.6-5.9,0.3-7.9,2.9c-2.7,3.5-4.8,7.4-5.9,11.7c-0.3,1.3-0.8,2-2.2,1.7c-0.6-0.1-1.2,0-2.1,0c0.3-1.6,0.6-3.2,0.9-4.7
		c2-8,5.5-15.1,12.6-19.8c3.8-2.5,8.2-3.7,12.8-3.7c3.2,0,6.4,0.1,9.6,0.1c1.1,0,1.6,0.3,2,1.4c0.9,2.5,2.1,4.9,5.3,5.3
		c3.6,0.4,5.5-1.3,5.5-4.8c0-0.6,0-1.1,0-1.8c1.9,0,3.8,0,5.6,0c4.6,0.1,9.1,0.3,13.7,0.5c4.1,0.2,7.8,3.5,8.3,7.5
		c0.1,0.8-0.5,1.8-1.1,2.5c-0.9,1-1.9,1.9-3,2.6c-2.3,1.5-3.3,3.1-2.7,5.2c0.6,2.4,2.5,4.1,5.2,4c1.6,0,3.1-0.6,4.9-1.1
		c0.3,2.1,0.7,4.3,1.1,6.9C95.3,126.6,93.2,126.6,91.1,126.6z M64.4,42.2c-0.3-1.3-0.9-2.6-1.5-4.3c2.8,0,5.4,0.1,8,0
		c6.8-0.3,13.5-0.6,20.3-0.9c1.2-0.1,1.8,0.2,2.2,1.3c1.1,3.2,2.1,6.4,3.1,9.6c1,3.3,1.9,6.7,4.5,9.1c1.1,1.1,2.5,1.9,3.8,2.8
		c2.3,1.6,4.9,2.9,7.1,4.6c1.2,0.9,2.1,2.5,2.5,4c0.7,2.9-1.4,4.8-4.3,4.4c-1.2-0.2-2.3-0.5-3.4-1.1c-2.9-1.5-5.7-3.2-8.5-4.9
		c-1.7-1-1.9-1-2.4,1c-0.3,1.5-0.7,3.1-1,4.9c-2-1.4-3.8-2.7-5.7-3.9c-4.2-2.8-8.6-4-13.5-2.1c-4.3,1.6-6.1,5.3-6.7,9.4
		c-0.6,4,1.1,7.3,4.7,9.3c4.7,2.6,9.7,4.2,14.9,5.3c0.7,0.1,1.4,0.3,2.3,0.5c-0.3,1.1-0.4,2-0.8,2.9c-0.2,0.4-0.8,0.9-1.3,0.8
		c-6.8-0.2-13.5-0.5-20.3-0.6C60.6,94.2,52.8,94,45,94c-1.6,0-2.3-0.4-2.4-2.1c-0.7-11.8-0.9-23.5-0.1-35.3
		c0.4-5.9,0.9-11.8,2.5-17.5c0.4-1.3,0.9-1.7,2.2-1.5c2.9,0.3,6-0.3,8.5,0.8c2.4,1,4.2,3.6,6.3,5.4c0.5,0.4,1.3,0.5,2,0.8
		C64.2,43.7,64.5,42.9,64.4,42.2z M128.6,125c0,1.5-0.4,1.9-1.9,1.9c-7.6-0.1-15.2-0.1-22.8,0c-1.5,0-1.6-0.7-1.8-1.8
		c-0.9-5-1.5-10.2-3-15.1c-1.2-4.2-3.4-8.1-5.1-12.1c-0.3-0.6-0.5-1.4-0.3-2c2.3-7.5,3.7-15.1,4.8-22.8c0.1-0.5,0.2-1,0.4-1.6
		c1.6,0.8,3,1.8,4.6,2.4c2.4,0.9,4.8,1.8,7.3,2.1c4.4,0.6,7.8-3.5,6.8-7.8c-0.7-3.2-2.8-5.5-5.4-7.3c-1.8-1.3-3.8-2.5-5.6-3.7
		c-2.6-1.7-4.5-4-5.6-6.9c-1.6-4.4-2.9-8.9-4.4-13.5c3-0.5,5.7-0.9,8.5-1.4c4.5-0.8,8.6-2.5,11.9-5.9c3.5-3.7,3.1-11-0.7-13.8
		c-2-1.4-4.1-1.2-6.3-0.9c-3.8,0.5-6.3,3-8.5,5.9c-1.6,2-3.5,3.5-6.2,2.8c-0.9-0.2-1.9-0.8-2.5-1.5c-1.4-1.5-2.8-3.1-4-4.8
		c-3-3.9-7.1-5.8-11.7-6.9c-8.2-1.9-16.2-1.7-24.1,1.4c-3.2,1.3-5.3,3.7-7,6.6c-0.8,1.3-1.4,2.7-2.2,4c-1.5,2.6-3.9,3-6.1,1
		c-1.1-1-2.2-2.1-3.2-3.2c-3.4-3.4-8.6-4.3-12.7-1.9c-1.1,0.7-2.2,2.1-2.5,3.4c-1.6,7.1,1.7,13.3,8.9,14.4c4,0.7,8.2,1,12.2,1.4
		c0.5,0.1,1.1,0.1,1.8,0.1c-0.4,2.2-1,4.3-1.2,6.4c-0.8,7.9-1.7,15.7-2,23.6c-0.3,8.6,0.1,17.1,0.1,25.7c0,0.4-0.5,1.2-0.8,1.3
		c-12.5,3.1-19.5,11.7-23.4,23.4c-0.9,2.6-1.6,5.2-2.2,7.8c-0.3,1-0.7,1.4-1.7,1.3c-1.7-0.1-3.4-0.1-5.1,0c-1.5,0.1-2.1-0.5-2.1-2
		c0.1-7.9,0.1-15.8,0.1-23.7c0-31.7,0-63.4,0-95.1c0-2.5,0.1-2.6,2.7-2.6c10.2,0,20.3,0.1,30.5,0.1c12.1,0,24.1,0,36.2,0
		c17.8,0,35.7-0.1,53.5-0.1c0.7,0,1.4,0,2.4,0c0,1,0,1.8,0,2.5c0,14.6,0.1,29.1,0.1,43.7c0,17.5-0.2,35-0.2,52.5
		C128.5,109.6,128.5,117.3,128.6,125z M157.7,126.7c-8.6,0-17.2,0-26,0c0-41,0-82,0-123.2c2.5,0,4.9,0,7.4,0
		c-0.6,1.2-1.2,2.4-1.7,3.5c-2.1,5.4-1,10.5,2.2,15.1c5.1,7.5,11.9,12.7,20.8,14.9c0.9,0.2,1.7,0.5,2.9,0.9
		c-2,5.2-2.3,10.8-5.7,15.1c-1.7,2.2-4,3.9-6.3,5.5c-2.5,1.8-5.1,3.3-7,5.8c-1.7,2.4-2.3,5-1.2,7.8c1.1,2.6,3.1,4,6,3.8
		c3.7-0.2,7-1.7,10.2-3.5c0.6-0.3,1.2-0.7,2-1.2c0.6,3.7,1.1,7.2,1.8,10.7c0.9,4.5,2.1,8.9,3.1,13.3c0.2,0.8,0.1,1.9-0.3,2.6
		c-4.3,7-6.1,14.9-7.3,22.9C158.4,122.8,158,124.7,157.7,126.7z M239.9,126.6c-0.4-0.1-0.9-0.7-1-1.1c-1.2-4.8-3.4-9.2-6.6-13
		c-1.9-2.3-5.5-3.2-8.3-2.1c-2,0.8-2.9,2.4-2,4.5c0.6,1.6,1.7,3.1,2.8,4.6c1.6,2.1,2.3,4.4,3.1,7.1c-2.8,0-5.3,0-7.8,0
		c-0.3,0-0.7-0.6-0.9-1c-1.6-3-4.3-5.6-8.1-4.7c-2.2,0.5-3.8,1.5-4.2,3.8c-0.3,1.6-1.1,2.2-2.7,2.1c-5.9-0.1-11.8-0.1-17.8-0.1
		c-0.4,0-0.8-0.1-1.4-0.1c0.2-0.8,0.5-1.5,0.6-2.2c0.2-1.2,0.4-2.5,0.3-3.7c-0.4-2.5-2.2-4.4-4.3-4.7c-2.2-0.3-4.6,1.1-5.8,3.3
		c-1.1,2.2-2.3,4.4-3.4,6.5c-0.2,0.4-0.7,0.9-1.1,0.9c-2.9,0.1-5.7,0-8.8,0c0.4-2.5,0.7-4.8,1.1-7.3c0.6,0.3,1.1,0.5,1.6,0.7
		c2,0.9,3.9,1,5.9,0c1.8-0.9,2.7-2.4,2.8-4.3c0.1-1.8-0.9-3.1-2.4-4c-1.8-1-3.4-2.2-4.3-4.2c-0.2-0.5-0.4-1.4-0.1-1.9
		c0.8-1.7,1.6-3.4,2.8-4.8c0.9-1,2.4-1.8,3.7-1.9c5.2-0.4,10.4-0.5,15.5-0.7c1.4-0.1,2.7-0.1,4.1-0.2c1-0.1,1.4,0.3,1.4,1.4
		c-0.1,3.5,0.6,4.7,2.9,5.3c3,0.7,5.3-0.3,6.8-3.1c0.1-0.2,0.3-0.4,0.3-0.6c0.5-2.5,2.1-3,4.5-2.9c3,0.2,6-0.2,9,0
		c7.6,0.5,13.7,3.9,18.3,10.1c3.1,4.2,6.5,13,6.7,18.2C241.8,126.7,240.8,126.8,239.9,126.6z M254.8,126.8c-1.7-0.1-3.5-0.1-5.2,0
		c-1.3,0.1-1.5-0.7-1.9-1.7c-1.3-4.2-2.4-8.6-4.2-12.6c-4.1-9.3-10.9-15.6-20.9-18.1c-0.9-0.2-1.4-0.4-1.3-1.5
		c0.2-6.3,0.2-12.6,0.3-18.9c0-0.3,0.1-0.6,0.1-1c0.1,0,0.3-0.1,0.4-0.1c1.5,2.8,2.7,5.6,2.7,8.9c0,2.3,0,4.5,0.3,6.7
		c0.5,3.4,2.6,5.8,5.5,7.4c3.3,1.8,6.9,2.7,10.7,2.8c7,0.1,12.7-7,12.3-13.9c-0.5-9.5-4.1-18-7.8-26.4c-2.5-5.5-6.5-10.1-10-15
		c-1.4-1.9-2.3-4.2-3.1-6.5c-0.8-2.3-1.4-4.6-2-7c-1.1-4.3-3.3-8.1-6.5-11.1c-3.4-3.2-7.6-5.3-12.3-5.4c-5.4-0.1-10.3-1.5-15.2-4
		c-4.7-2.4-9.9-2.4-15-1.1c-1.9,0.5-3.8,1.2-5.6,1.8c-2.3,0.7-4.4,0.6-6.2-1.2c-1.8-1.7-3.7-3.2-5.5-5.2c0.6-0.1,1.2-0.2,1.7-0.2
		c12.1,0,24.3,0,36.4,0c6.6,0,13.2-0.1,19.8-0.1c7.8,0,15.6,0.1,23.3,0.1c3.1,0,6.2,0,9.3-0.1c1.6-0.1,2.1,0.6,2.1,2.1
		c-0.1,9.8-0.1,19.5-0.1,29.3c0,8.9,0.1,17.8,0.1,26.7c0,8.9-0.1,17.7-0.1,26.6c0,7-0.1,14-0.1,21c0,5.2,0.1,10.5,0.3,15.7
		C257,126.2,256.4,126.8,254.8,126.8z"/>
	<path class="st13" d="M27.6,159.6c0-5.7-0.1-11.5,0-17.2c0-0.5,0.6-1.1,0.9-1.6c0.4-0.5,1.2-1.2,1.1-1.6c-0.3-0.7-0.9-1.4-1.6-1.6
		c-3.1-0.9-5,0.2-6.3,3.2c-1.1,2.7-2.3,5.4-3.5,8.1c-0.4,0.8-0.8,1.5-1.5,2.7c-0.7-1.5-1.2-2.6-1.6-3.8c-1.1-2.8-2.1-5.7-3.3-8.5
		c-0.3-0.8-1.3-1.7-2.1-1.8c-1.6-0.3-3.4-0.2-5.1-0.1c-0.5,0-1.3,0.6-1.4,1.1C3,139,3.4,140,3.8,140.1c1.4,0.5,1.3,1.5,1.3,2.6
		c0,5.3,0,10.6,0.1,15.9c0,1.3,0.1,2.6-1.9,2.6c-0.4,0-1,1-1.1,1.5c0,0.3,0.8,0.9,1.4,1.1c0.8,0.2,1.7,0.1,2.5,0.1
		c2.1,0,2.4-0.2,2.4-2.3c0-5.7,0-11.4,0.1-17.1c0-0.8,0.2-1.6,0.2-2.4c0.1,0,0.3,0,0.4-0.1c0.4,0.7,0.8,1.5,1.1,2.2
		c1.6,4,3.2,7.9,4.9,11.9c0.2,0.6,1,1.3,1.5,1.3c0.6,0,1.3-0.6,1.8-1.1c0.3-0.3,0.4-0.9,0.6-1.4c1.3-2.9,2.5-5.9,3.8-8.8
		c0.2,0.1,0.4,0.1,0.5,0.2c0,0.5,0.1,1,0.1,1.5c0,4.2,0.1,8.3,0.1,12.5c0,3.6,0,3.6,3.5,3.6c0.6,0,1.3,0.2,1.8-0.1
		c0.8-0.4,1.4-1.1,2.1-1.6c-0.7-0.4-1.3-1-2-1.1C28.2,160.9,27.6,160.8,27.6,159.6z"/>
	<path class="st13" d="M117.6,160.7c-1.2-0.3-2.7-0.1-3.5-0.8c-2.7-2.6-5.1-5.5-7.8-8.5c2.7-2.1,4.8-5.1,8.9-4.5
		c0.4,0.1,1.2-0.6,1.2-1c0.1-0.5-0.4-1.1-0.8-1.5c-0.2-0.2-0.7-0.3-1.1-0.3c-2.6-0.3-5,0-7,2.1c-1.7,1.7-3.8,3.1-6,4.8
		c-0.1-0.9-0.2-1.4-0.2-1.9c-0.1-3-0.1-6-0.2-9c-0.1-4.4,0.6-4.7-4.7-4.5c-1.2,0-3.1-0.7-3.2,1.4c-0.1,2,1.7,1.7,3.1,1.7
		c1,0,1.4,0.4,1.4,1.4c-0.1,1.1-0.1,2.3-0.1,3.4c0.1,5.1,0.3,10.3,0.5,15.4c0,1.2-0.4,1.8-1.6,1.7c-0.4,0-0.8,0-1.2,0
		c-0.9,0-1.8,0.1-1.8,1.3c-0.1,1.2,0.7,1.7,1.8,1.8c1.3,0.1,2.7,0.1,4.1,0.1c1.5,0,2.2-0.7,2.2-2.1c0-1.5,0.1-3.1,0-4.6
		c-0.2-2,0.7-3.1,2.2-3.7c2.5,2.4,4.8,4.6,7.2,6.9c-0.3,0.2-0.7,0.2-0.8,0.4c-0.4,0.5-1,1-1,1.5c0,0.4,0.7,1.1,1.2,1.1
		c2.6,0.1,5.2,0.2,7.8,0.1c1.2,0,1.7-1,1.2-2C119.2,161.1,118.3,160.9,117.6,160.7z"/>
	<path class="st13" d="M212.7,142.2c-6.8,2-11,12.3-3.8,18.9c4.1,3.8,12.4,3.8,15.9-0.2c0.5-0.5,0.7-1.7,0.4-2.3
		c-0.5-1-1.6-0.7-2.3-0.1c-2.1,1.7-4.6,1.7-7.1,1.5c-3.6-0.4-6.8-2.8-6.7-6.2c0.2-0.1,0.3-0.1,0.4-0.1c5.1,0,10.3,0,15.4,0.1
		c0.9,0,1.5-0.2,1.5-1.3C226.6,145.5,219.5,140.3,212.7,142.2z M221.7,150.1c-3.8,0.1-7.5,0.2-11.3,0.2c-0.3,0-0.5-0.1-1-0.2
		c1.2-2.7,2.9-4.6,5.8-4.8c2.9-0.2,5.5,0.7,7.3,3.1C223,149.3,223.1,150.1,221.7,150.1z"/>
	<path class="st13" d="M145.9,158.4c-0.5,0-0.9,0.4-1.4,0.5c-1.8,0.6-3.5,1.4-5.3,1.6c-3.8,0.4-8.5-1-8.4-6.2c0.5,0,0.9-0.1,1.4-0.1
		c4.3-0.1,8.6-0.1,12.9-0.3c1.9,0,2.3-0.5,2.3-2.3c0-2.8-1.2-5-3.5-6.6c-3.8-2.6-7.7-2-11.7-0.6c-4,1.4-6.1,4.5-6.1,8.3
		c-0.1,4.9,2,8.4,6,10.1c3.5,1.5,7.1,1.5,10.6,0.7c1.7-0.4,3.4-1.3,4.8-2.3c0.5-0.3,0.6-1.6,0.4-2.3
		C147.8,158.6,146.6,158.4,145.9,158.4z M137.8,146.4c2.6,0,5.6,1.9,6.5,4.5c-4.5,0-8.9,0-13.4,0
		C131.8,148.3,134.6,146.5,137.8,146.4z"/>
	<path class="st13" d="M85.5,160.6c-2.3,0.3-3.8-0.8-5.1-2.6c-1-1.3-2.2-2.5-3.2-3.7c-0.8-1-1.6-2-2.4-2.9c3.5-3.4,5-4.1,9.2-4.6
		c0.5-0.1,0.9-0.7,1.4-1.1c-0.4-0.5-0.8-1.5-1.4-1.6c-2-0.3-4-0.3-5.8,1.2c-1.1,1-2.3,1.8-3.5,2.7c-1.5,1.1-3,2.1-4.7,3.2
		c-0.2-4.1-0.4-7.9-0.4-11.7c-0.1-4-0.5-4.4-4.4-3.8c-0.2,0-0.3,0.1-0.5,0.1c-1,0.2-2.1,0.6-1.8,1.8c0.1,0.5,1.2,1.1,1.8,1.2
		c1.2,0.1,1.8,0.5,1.8,1.8c0.1,5.6,0.2,11.3,0.4,16.9c0.1,3.2,0.1,3.2-3,3.7c-0.6,0.1-1.1,0.9-1.7,1.4c0.6,0.5,1.2,1.2,1.8,1.3
		c1.4,0.2,2.9,0,4.4,0.1c1.2,0,1.8-0.5,1.7-1.7c0-1.9,0.1-3.7,0-5.6c-0.1-1.5,0.5-2.5,1.5-2.8c2.5,2.2,4.9,4.4,7,6.3
		c-0.5,1-1.3,2-1,2.3c0.5,0.7,1.4,1.3,2.2,1.4c1.9,0.2,3.8,0.1,5.7,0.1c1,0,2.1,0.1,2.1-1.3C87.6,161.3,86.8,160.4,85.5,160.6z"/>
	<path class="st13" d="M253.3,142c-2.4-0.8-4.6,0-6.4,1.6c-1.3,1.1-2.4,2.5-3.9,4.1c-0.1-1.1,0-1.7-0.2-2.2
		c-0.3-0.6-0.8-1.5-1.3-1.5c-2.6-0.1-5.3,0-7.9,0.2c-0.4,0-1,1-1,1.6c0,0.3,0.9,0.9,1.4,1c1.2,0.2,2.4,0.1,3.5,0.1
		c1.3,0,2,0.4,1.9,1.9c-0.1,3.2-0.2,6.4-0.2,9.6c0,1.5-0.4,2.3-2.1,2.1c-0.7-0.1-1.4-0.1-2,0.2c-0.5,0.2-1.1,0.8-1.1,1.2
		c0,0.5,0.4,1.2,0.8,1.4c0.6,0.3,1.4,0.5,2.1,0.5c4.6,0,9.1-0.1,13.7-0.3c0.5,0,1.2-0.2,1.6-0.5c0.4-0.4,0.7-1,0.7-1.5
		c0-0.3-0.8-0.8-1.2-0.8c-1.5-0.1-3,0-4.6,0c-4.2,0-4.3,0-4.5-4.2c-0.1-1.3-0.4-3.1,0.3-3.9c1.8-2.4,3.9-4.6,6.2-6.4
		c2-1.6,3.9-0.8,4.9,1.5c0.2,0.5,0.6,1.1,1,1.2c0.5,0.2,1.5,0.2,1.7-0.1c0.4-0.7,0.7-1.6,0.5-2.3C256.8,144.3,255.5,142.7,253.3,142
		z"/>
	<path class="st13" d="M197.5,160.7c-1.1-0.3-2.3-0.5-3.5-0.4c-1.9,0.1-2.3-0.7-2.2-2.4c0.1-6.5,0.1-13.1,0.1-19.6c0-2.7-0.2-3-3-3
		c-2,0-4.1,0.1-6.1,0.3c-0.6,0.1-1.2,0.7-1.8,1.1c0.4,0.6,0.8,1.5,1.3,1.6c1.3,0.3,2.7,0.4,4,0.4c1.3,0,1.8,0.4,1.7,1.8
		c-0.1,2.9,0,5.9,0,8.8c0,3.2,0,6.3,0,9.5c0,1.1-0.4,1.6-1.6,1.6c-1.3-0.1-2.6,0-3.9,0.1c-1,0.1-1.7,0.5-1.8,1.7
		c-0.1,1.2,0.8,1.6,1.8,1.6c5,0.1,9.9,0.1,14.9,0c0.6,0,1.1-1,1.7-1.5C198.7,161.7,198.2,160.9,197.5,160.7z"/>
	<path class="st13" d="M173.6,161.2c-1.4-0.3-2.9-0.5-4.3-0.5c-1.2,0-1.6-0.4-1.5-1.6c0.1-3.4,0-6.8,0-10.1c0,0,0.1,0,0.1,0
		c0-0.8,0-1.6,0-2.4c0-3,0.1-6.1-0.1-9.1c0-0.6-0.8-1.8-1.3-1.8c-2.7-0.1-5.4,0-8.1,0.2c-0.6,0.1-1.1,1.1-1.7,1.8
		c0.6,0.4,1.2,1.1,1.9,1.2c1.3,0.1,2.7-0.1,4-0.1c1.3,0,1.8,0.6,1.8,1.9c0,6.1,0,12.3,0,18.4c0,1.1-0.3,1.4-1.3,1.4
		c-1.3-0.1-2.6,0-3.9,0c-1,0-2,0.2-1.9,1.5c0,1.2,0.8,1.7,1.9,1.7c4.7,0,9.5,0.1,14.2,0c0.6,0,1.1-0.7,1.6-1.1
		C174.5,162.1,174.1,161.4,173.6,161.2z"/>
	<path class="st13" d="M53.3,160.8c-0.9-0.3-2-0.2-3-0.2c-1.4,0.1-1.9-0.4-1.9-1.9c0.1-2.1,0-4.2,0-6.3c0,0,0,0,0,0
		c0-2.3,0-4.5,0-6.8c0-1-0.2-2-1.5-2c-2,0-4.1,0-6.1,0.1c-0.5,0-1,0.8-1.5,1.2c0.5,0.5,0.8,1.3,1.4,1.5c0.8,0.3,1.8,0.1,2.7,0.3
		c0.5,0.1,1.3,0.7,1.3,1.1c0.1,3.8,0.1,7.7,0.1,11.5c0,0.4-0.7,1.1-1.2,1.2c-1.1,0.2-2.2,0.1-3.4,0.2c-1,0.1-2,0.4-1.8,1.5
		c0.1,0.6,1.1,1.3,1.8,1.3c4.4,0,8.8,0,13.2-0.2c0.6,0,1.1-0.8,1.7-1.2C54.5,161.8,54,161,53.3,160.8z"/>
	<path class="st13" d="M46,141.5c1.6,0.1,2.2-0.7,2.2-3.1c0-2.5-0.6-3.4-2.3-2.8c-0.7,0.2-1.5,1.3-1.5,2c-0.1,1.3-0.8,2.9,0.9,3.8
		C45.5,141.4,45.7,141.5,46,141.5z"/>
	<path class="st13" d="M71.4,57c2.4,1,4.9,2.1,7.4,2.8c3.5,1,7,2.3,10.7,1.9c2-0.3,3.3-1.4,3.8-3.3c1-3.5,0.5-6.8-1.7-9.6
		c-3.9-4.8-9.3-7-15.3-8.1c-0.9,0.1-1.8,0.1-2.7,0.2c-4.2,0.6-7.2,3.3-7.7,6.9C65.4,52,67.2,55.1,71.4,57z M68.7,48.8
		c0.2-2.1,1.4-3.7,3.3-4.6c3.3-1.5,6.4-0.6,9.4,0.8c1.1,0.6,2.2,1.3,3.4,2.1c-2.2,2.2-4.2,4.2-6.1,6.3c-2.6,2.8-2.6,2.8-5.9,1
		c-0.6-0.3-1.2-0.7-1.7-1C69.5,52.4,68.5,50.8,68.7,48.8z"/>
	<path class="st13" d="M60.9,46.4c-2.2-0.7-4.5-1.2-6.8-1.8c0,0.1,0,0.2-0.1,0.3c-0.4,0-0.8,0-1.2,0.1c-1.9,0.3-2.7,1.1-2.7,2.6
		c0,1.6,1.1,2.7,2.9,2.9c0.9,0.1,1.8-0.1,2.7-0.2c1.7-0.3,3.3-0.6,4.9-1.1c0.6-0.2,1.2-0.6,1.7-1C61.9,47.6,61.5,46.6,60.9,46.4z"/>
	<path class="st13" d="M188.2,41.3c-1.3-0.4-2.7-0.5-3.8-0.7c-5.7,0.4-10.1,2.9-14.1,6c-3.6,2.8-4.9,6.8-3.8,11.4
		c0.6,2.4,1.7,3.5,4.2,3.6c1.5,0.1,3.1,0.1,4.5-0.3c4.6-1.4,9.1-2.8,13.6-4.5c3.7-1.4,5.4-4.4,5.3-8C194,45.1,192,42.6,188.2,41.3z
		 M189.7,52.7c-1.7,1.2-3.7,2.1-5.6,3c-0.3,0.1-1-0.1-1.3-0.4c-2.6-2.7-5.1-5.4-7.7-8.2c2.8-2.1,5.7-3.5,9.1-3.7
		c3.1-0.1,5.8,1.5,6.8,4.1C191.7,49.5,191.4,51.5,189.7,52.7z"/>
	<path class="st13" d="M198.4,49c2.5,0.6,5.1,1,7.8,1.5c0.4-0.1,1.3,0.1,1.7-0.3c0.8-0.7,1.7-1.7,1.9-2.7c0.1-0.6-0.7-1.9-1.4-2.1
		c-3.6-1.1-7-0.2-10.2,1.5C197.3,47.4,197.4,48.8,198.4,49z"/>
	<path class="st13" d="M221.6,100.7c-2.9-0.7-5.3,0.3-7.6,2.1c-3.5,2.7-6,5.9-6.8,10.3c-0.6,3.1,0.5,4.8,3.6,5.1c0.4,0,0.8,0,1,0.1
		c3.1,0,4.4-0.7,5.4-3.8c1-2.8,2.6-4.8,5.2-6c0.3-0.1,0.5-0.3,0.7-0.5c1.3-1,2.4-2.3,2-4C224.7,102.1,223.4,101.1,221.6,100.7z"/>
	<path class="st13" d="M190.4,105.7c-3.4-2.8-7.3-4.4-12-4.7c-0.9,0.2-2.1,0.3-3.2,0.6c-1.6,0.4-2.7,1.5-2.9,3.2
		c-0.2,1.8,0.4,3.4,2.1,4.1c1.7,0.7,3.6,1.3,5.5,1.6c1.9,0.3,3.6,0.7,5,2.1c1.3,1.3,3,1.7,4.8,1
		C192.8,112.3,193.3,108.1,190.4,105.7z"/>
	<path class="st13" d="M200.9,107c-1.9-0.6-3.3,0.5-4.4,1.9c-0.5,0.6-0.9,1.4-1.1,2.1c-0.4,2.6-1.7,4.3-3.8,5.9
		c-2.9,2.2-2.4,6.6,0.9,7.7c1.3,0.4,2.9,0.3,4.3-0.1c3.9-1,7.4-7.6,7.2-11.7c-0.1-0.6-0.1-1.2-0.2-1.9
		C203.6,109.1,202.9,107.5,200.9,107z"/>
	<path class="st13" d="M50.7,107.7c-1.5-2.1-3.6-3.8-5.5-5.6c-1.9-1.8-4.2-2-6.6-1.5c-1.9,0.4-3.3,1.4-3.7,3.3
		c-0.4,1.9,0.7,3.4,2.3,4.1c3,1.5,4.9,3.8,5.9,7c0.7,2.2,2.4,3.3,4.8,3.1c0.6,0,1.1,0,1.7-0.1c2.8-0.5,4-2.1,3.3-4.9
		C52.4,111.3,51.9,109.2,50.7,107.7z"/>
	<path class="st13" d="M87.8,104.7c-0.2-1.8-1.4-2.8-3-3.2c-1-0.3-2.1-0.4-2.9-0.5c-4.7,0.2-8.5,1.9-12,4.6c-0.6,0.5-1.2,1.3-1.5,2
		c-1.4,2.8-0.1,5.6,2.7,6.2c1.6,0.3,3.1-0.1,4.2-1.2c1.4-1.4,3.1-1.9,5-2.1c1.8-0.3,3.6-0.8,5.3-1.5C87.2,108.2,88,106.6,87.8,104.7
		z"/>
	<path class="st13" d="M67.8,116.4c-1.7-1.1-2.6-2.7-3.1-4.6c-0.4-1.5-1.3-3-2.5-4.1c-1.8-1.7-4.5-1-5.5,1.3
		c-0.5,1.2-0.6,2.5-0.9,3.4c0.1,1.2,0.1,2,0.3,2.7c1.1,4.2,2.9,7.9,7.2,9.6c2.2,0.8,4.9,0.1,6.1-1.6c1-1.2,0.8-3.7-0.5-5.4
		C68.8,117.2,68.3,116.7,67.8,116.4z"/>
</g>
</svg>
