<?xml version="1.0" encoding="utf-8"?>
<!-- Generator: Adobe Illustrator 23.0.5, SVG Export Plug-In . SVG Version: 6.00 Build 0)  -->
<svg version="1.1" id="Capa_1" xmlns="http://www.w3.org/2000/svg" xmlns:xlink="http://www.w3.org/1999/xlink" x="0px" y="0px"
	 viewBox="0 0 260.7 126.8" style="enable-background:new 0 0 260.7 126.8;" xml:space="preserve">
<style type="text/css">
	.st0{fill:none;stroke:#000000;stroke-width:0.8513;stroke-miterlimit:10;}
	.st1{fill:none;stroke:#C288DF;stroke-width:4;stroke-linecap:round;stroke-linejoin:round;stroke-miterlimit:10;}
	.st2{fill:none;stroke:#000000;stroke-miterlimit:10;}
	.st3{fill:none;stroke:#99FFFF;stroke-width:3;stroke-linecap:round;stroke-linejoin:round;stroke-miterlimit:10;}
	.st4{fill:none;stroke:#99FFFF;stroke-width:4;stroke-linecap:round;stroke-linejoin:round;stroke-miterlimit:10;}
	.st5{fill:none;stroke:#FDF57A;stroke-width:4;stroke-linecap:round;stroke-linejoin:round;stroke-miterlimit:10;}
	.st6{fill:none;stroke:#FF614D;stroke-width:4;stroke-linecap:round;stroke-linejoin:round;stroke-miterlimit:10;}
	.st7{fill:none;stroke:#39B54A;stroke-width:4;stroke-linecap:round;stroke-linejoin:round;stroke-miterlimit:10;}
	.st8{fill:none;stroke:#000000;stroke-width:1.8406;stroke-miterlimit:10;}
	.st9{fill:none;stroke:#000000;stroke-width:0.8409;stroke-linecap:round;stroke-miterlimit:10;}
	.st10{fill:none;stroke:#000000;stroke-width:3;stroke-linecap:round;stroke-miterlimit:10;}
	.st11{fill:none;stroke:#99FFFF;stroke-width:6.6043;stroke-linecap:round;stroke-linejoin:round;stroke-miterlimit:10;}
	.st12{fill:none;stroke:#99FFFF;stroke-width:6.9442;stroke-linecap:round;stroke-linejoin:round;stroke-miterlimit:10;}
	.st13{fill:#FFFFFF;}
	.st14{fill:none;stroke:#000000;stroke-width:4.3705;stroke-linecap:round;stroke-miterlimit:10;}
	.st15{fill:none;stroke:#C288DF;stroke-width:4.6373;stroke-linecap:round;stroke-linejoin:round;stroke-miterlimit:10;}
	.st16{fill:none;stroke:#99FFFF;stroke-width:4.1303;stroke-linecap:round;stroke-linejoin:round;stroke-miterlimit:10;}
	.st17{fill:none;stroke:#FDF57A;stroke-width:5.507;stroke-linecap:round;stroke-linejoin:round;stroke-miterlimit:10;}
	.st18{fill:none;stroke:#C288DF;stroke-width:6.3844;stroke-linecap:round;stroke-linejoin:round;stroke-miterlimit:10;}
	.st19{fill:none;stroke:#99FFFF;stroke-width:5.7098;stroke-linecap:round;stroke-linejoin:round;stroke-miterlimit:10;}
	.st20{fill:none;stroke:#FF614D;stroke-width:5.7098;stroke-linecap:round;stroke-linejoin:round;stroke-miterlimit:10;}
	.st21{fill:none;stroke:#99FFFF;stroke-width:5.6394;stroke-linecap:round;stroke-linejoin:round;stroke-miterlimit:10;}
	.st22{fill:none;stroke:#FDF57A;stroke-width:7.5191;stroke-linecap:round;stroke-linejoin:round;stroke-miterlimit:10;}
	.st23{fill:none;stroke:#000000;stroke-width:1.6509;stroke-miterlimit:10;}
</style>
<g>
	<path class="st13" d="M14.2,78.9c-1,0.2-1.9,0.1-2.5-0.2c-0.7-0.4-1.2-1.8-1.4-2.8c-0.1-0.5-0.1-1.3-0.1-2.2c0-0.8,0.1-1.7,0.1-2.8
		l0.9-7c4.2-0.7,7.8-0.3,10.9,1.2c3.1,1.5,4.9,3.7,5.5,6.7c0.2,1.1,0.2,1.8-0.1,2.5c-0.4,0.7-1,1.4-2.2,1.9l0.4,1.9
		c0,0,9.5-1.8,15.1-2.8v0.1c4.6-0.7,12.1-1.9,12.1-1.9l-0.2-2c-1.5,0.1-3.7-0.3-4.4-1.2c-0.7-0.9-1.3-2.8-1.6-6.1l-4.1-24.4
		l26.1,31.8l9.3-1l-0.2-1.9c-1.2-0.1-1.9-1-2.5-1.8c-0.5-0.7-0.7-2.1-1-5l-1.5-14.4l-0.8-10.8c0.7-1.9,1.7-3.5,2.9-4.7
		c1.3-1.3,3.5-2.2,5.7-2.7c0.9-0.1,1.8-0.1,2.5-0.1l0.6-0.1l1.7,30.4c0.1,2,0.1,3.6-0.1,4.8V64c0,0.1,0,0.1,0,0.2
		c-0.1,0.6-0.2,1.1-0.4,1.5c-0.1,0.1-0.1,0.2-0.1,0.3c-0.5,0.8-1.4,1.3-2.7,1.4l0.1,2.2l17.4-1l0.9-2.6c-0.8-0.2-1.4-0.7-1.9-1.3
		c-0.4-0.6-0.6-1.6-0.8-2.9c-0.1-1-0.2-2.2-0.3-3.5l-1-30.6l0.8-0.1c2.8-0.1,6.2,0.4,8.1,2c1.3,1,2.4,2.5,3.3,4.3l2.2-0.4l-2.8-12
		c-19.5,0.9-21.6,1.1-35.1,2.4v-0.1l-10.8,1.3l0.2,1.9c2.1-0.1,3.3,4.6,3.7,7.5l1.6,15.6L53.4,32.8c-0.4-0.4-0.7-0.7-1-1.1
		c-0.3-0.4-0.4-0.8-0.4-1c-0.1-0.4,0-0.7,0.2-1.1c0.2-0.4,0.4-0.6,0.7-0.9l-0.4-2.2l-20.9,3.5l0.2,1.9c1.5-0.2,2.1,0.1,2.5,0.8
		c0.1,0.3,0.4,1,0.4,1L40,65.4c0,0,0-0.1-0.1-0.1L24.8,37.6c-0.3-0.5-0.4-1-0.6-1.2c-0.1-0.3-0.2-0.6-0.2-0.8
		c-0.1-0.4,0-0.8,0.2-1.3c0.2-0.4,0.7-1,1.7-1.4L25.6,31c0,0-8.5,1.9-11.4,2.5C11.8,34.2,4.3,36,4.3,36L4.7,38
		c0.3-0.1,1.6,0.1,1.6,0.6c0.1,0.3-0.1,1.5-0.1,1.5L2.5,77.3l-0.1,1.2c0,0.1,0,0.1,0,0.1c0,0.1,0,0.3-0.1,0.4v0.1l0,0
		c-0.2,1.2-1,2.1-1.9,2.5c-0.1,0.1-0.3,0.1-0.4,0.1l0.7,1.8l13.8-3.4L14.2,78.9z M13.3,44.7l8,14.9c-1.4-0.6-2.9-1-4.4-1.1
		c-1.6-0.1-3.2-0.1-4.9,0L13.3,44.7z"/>
	<path class="st13" d="M161.5,73.6c-1.8-0.1-3.5-0.3-5.2-0.4l-20.2-52.5l-7.7-20.1c-0.3-0.8-1.5-0.8-1.8,0l-7.6,20L98.9,73.2
		c-1.6,0.1-3.3,0.3-5,0.4c-24.1,1.9-38.3,3.8-54.4,6.7c-16.7,2.9-28.7,5.9-37.6,8.3l7.5,7.5c13.6-3.3,30.4-6.7,40.8-8.1
		c19.7-2.6,60.4-5.4,60.4-5.4l17.1-50L143.4,78l1.6,4.7c0,0,40.7,2.8,60.4,5.4c10.4,1.4,27.1,4.8,40.8,8.1l7.5-7.5
		c-8.9-2.4-20.9-5.4-37.6-8.3C199.8,77.5,185.6,75.5,161.5,73.6z"/>
	<path class="st13" d="M144.6,89.9l-8.9-0.4c-1.4-3.8-7.7-20.2-7.7-20.2c-0.1-0.2-0.3-0.4-0.6-0.4c-0.3,0-0.5,0.1-0.6,0.4
		c0,0-5.6,16.1-7,20.1l-9.3,0.4c0,0-22.9,0.3-56.1,5c-13.3,1.9-29.2,4.8-41.5,7.7l5.4,5.6c12.5-2.8,28.8-5.6,41-7.2
		c20.7-2.7,37.3-2.8,46.9-2.6c3.2,2.3,8.4,6.1,8.9,6.4c-0.3,0.8-7,21.2-7,21.2v0.2c0,0.2,0.1,0.4,0.2,0.5c0.2,0.1,0.5,0.1,0.7,0
		c0,0,17.6-12.6,18.2-13.2c0.7,0.5,18.2,13.2,18.2,13.2c0.2,0.1,0.5,0.1,0.7,0c0.1-0.1,0.2-0.3,0.2-0.5V126c0,0-6.7-20.4-7-21.2
		c0.4-0.3,5.6-4,8.8-6.4c9.6-0.3,26.3-0.1,47.3,2.5c12.3,1.6,28.6,4.4,41,7.2l5.4-5.6c-12.3-2.9-28.1-5.8-41.5-7.7
		C167.5,90.2,144.6,89.9,144.6,89.9z"/>
	<path class="st13" d="M258.1,60c-1.4-2.3-4.5-4.9-9.2-7.7l-4.9-2.9c-2.1-1.3-3.4-2.3-4-3.2c-0.6-0.9-0.8-1.9-0.6-3.1
		c0.2-1.3,1-2.3,2.2-3c1.3-0.7,2.8-0.7,4.5-0.4c2.3,0.5,4.3,1.8,6.1,3.9c1.8,2.1,3.1,4.8,4,8.1l1.8,0.1l1.3-14.4
		c-0.7,0.2-1.3,0.4-1.8,0.4c-0.5,0.1-1,0.1-1.3-0.1c-1-0.2-2.9-0.9-5.6-1.9c-2.8-1-5-1.8-6.8-2.2c-4.9-1-7.8-0.5-11.1,1.3
		c-3.4,1.9-5.4,4.9-6.1,9.1c-0.6,3.1-0.2,5.9,1.1,8.3c1.3,2.4,3,4.6,6.4,6.6l4.2,2.8c0.2,0.1,0.6,0.4,1.1,0.7
		c4.3,2.5,7.3,5.5,6.9,8.2c-0.4,1.9-1.9,2.8-3.5,3.6s-4.3,0.7-7,0.2c-4-0.8-7.6-2.7-9.3-5.8c-2.2-4-1.7-3.2-2.4-6.5l-1-0.1
		c0,0-0.1,0.9-0.4,1.4c-0.1,0.2-0.2,0.4-0.4,0.7c-1.3,1.7-2.8,2.5-4.6,3.4c-3,1.6-6.1,2.2-9.4,1.7c-2.1-0.3-3.9-1.2-4.6-2.1
		c-0.7-1-1.3-2.8-1-5.3l1.6-12.5l3.7,0.6c2.4,0.4,4.7,1.4,5.9,2.7c0.8,0.9,1.5,2.2,1.9,4l1.7-0.1l-0.4-15l-1.3-0.2
		c-0.4,1.9-1.1,3.2-1.9,3.8c-0.8,0.6-2.8,0.5-5,0.2l-4-0.6l0.9-8c0.4-2.9,1.3-3.4,1.9-4s2.4-0.5,4-0.3c3.3,0.5,6.1,1.8,8.1,3.7
		c1.3,1.2,2.3,2.6,3.1,4.3l2.6-0.1l-1-10.5c0,0-19.7-3.1-20-3.1l-12.4-1.7l-0.3,1.6c1.1,0.4,1.7,2.3,2,3.2c0.3,0.8,0.4,1.3,0.2,4.2
		c-0.4,6.8-1.9,21.6-3.2,28.3c-0.5,2.6-1.1,4.3-1.6,5.1c-0.6-1.2-0.9-3.1-1.4-4.9c0-0.1-0.1-0.2-0.1-0.4c-1.3-4.4-2.6-8.1-3.9-11.1
		c-1.3-3-2.8-5.6-4.3-7.8c3.2-1.8,6-3.7,7.3-5.5s2.1-3.7,2.2-5.8c0.1-2.5-0.4-4.4-1.9-5.8c-1.4-1.3-3.6-2.1-6.7-2.3
		c0,0-10.2-0.9-13.6-1.2c-3.7-0.3-15.1-0.9-15.1-0.9l-0.1,1.9c1.1,0.3,2.2,0.9,2.6,1.8c0.4,0.8,0.4,2.7,0.3,5.6L153,58.5l3.7,10.4
		l10.5,0.7l0.1-1.5c-1.1-0.3-1.9-0.9-2.2-1.7c-0.4-0.8-0.4-3.4-0.3-6.4l0.7-12.3l2.7-0.8c2.3,3,4.1,6.3,5.5,9.8
		c1.4,3.6,2.1,6.3,1.9,8.1c-0.1,0.7-0.5,1.9-0.9,2.3c-0.3,0.4-1,0.8-1.8,0.8l-0.1,1.9c5.7,0.6,11.1,1,17,1.6
		c8.4,0.9,17,2.1,26.2,3.8c1.6,0.3,3.8,0.7,3.8,0.7s1-1.7,1.7-2.5c0.3,0.9,0.4,2.2,0.7,3c1.1-0.3,3.1-0.1,5.8,1.1s5.4,2,7.8,2.5
		c6.1,1.3,11.2,0.9,15.5-1.3c4.3-2.2,6.8-5.7,7.7-10.5C259.9,65.2,259.5,62.4,258.1,60z M173.6,39.6c-1.8,1.6-4.6,2.6-7.6,3.1
		l0.7-11.2c0.1-1.7,0.4-2.8,1.1-3.1c0.6-0.4,1.7-0.5,3.4-0.4c1.9,0.1,3.5,0.7,4.3,1.6c0.8,0.9,1.2,2.2,1,4
		C176.3,35.9,175.3,37.9,173.6,39.6z"/>
</g>
</svg>
