<?xml version="1.0" encoding="utf-8"?>
<!-- Generator: Adobe Illustrator 23.0.5, SVG Export Plug-In . SVG Version: 6.00 Build 0)  -->
<svg version="1.1" id="Capa_1" xmlns="http://www.w3.org/2000/svg" xmlns:xlink="http://www.w3.org/1999/xlink" x="0px" y="0px"
	 viewBox="0 0 164 164" style="enable-background:new 0 0 164 164;" xml:space="preserve">
<style type="text/css">
	.st0{fill:none;stroke:#000000;stroke-width:0.8513;stroke-miterlimit:10;}
	.st1{fill:none;stroke:#C288DF;stroke-width:4;stroke-linecap:round;stroke-linejoin:round;stroke-miterlimit:10;}
	.st2{fill:none;stroke:#000000;stroke-miterlimit:10;}
	.st3{fill:none;stroke:#99FFFF;stroke-width:3;stroke-linecap:round;stroke-linejoin:round;stroke-miterlimit:10;}
	.st4{fill:none;stroke:#99FFFF;stroke-width:4;stroke-linecap:round;stroke-linejoin:round;stroke-miterlimit:10;}
	.st5{fill:none;stroke:#FDF57A;stroke-width:4;stroke-linecap:round;stroke-linejoin:round;stroke-miterlimit:10;}
	.st6{fill:none;stroke:#FF614D;stroke-width:4;stroke-linecap:round;stroke-linejoin:round;stroke-miterlimit:10;}
	.st7{fill:none;stroke:#39B54A;stroke-width:4;stroke-linecap:round;stroke-linejoin:round;stroke-miterlimit:10;}
	.st8{fill:none;stroke:#000000;stroke-width:1.8406;stroke-miterlimit:10;}
	.st9{fill:none;stroke:#000000;stroke-width:0.8409;stroke-linecap:round;stroke-miterlimit:10;}
	.st10{fill:none;stroke:#000000;stroke-width:3;stroke-linecap:round;stroke-miterlimit:10;}
	.st11{fill:none;stroke:#99FFFF;stroke-width:6.6043;stroke-linecap:round;stroke-linejoin:round;stroke-miterlimit:10;}
	.st12{fill:none;stroke:#99FFFF;stroke-width:6.9442;stroke-linecap:round;stroke-linejoin:round;stroke-miterlimit:10;}
	.st13{fill:#FFFFFF;}
	.st14{fill:none;stroke:#000000;stroke-width:4.3705;stroke-linecap:round;stroke-miterlimit:10;}
	.st15{fill:none;stroke:#C288DF;stroke-width:4.6373;stroke-linecap:round;stroke-linejoin:round;stroke-miterlimit:10;}
	.st16{fill:none;stroke:#99FFFF;stroke-width:4.1303;stroke-linecap:round;stroke-linejoin:round;stroke-miterlimit:10;}
	.st17{fill:none;stroke:#FDF57A;stroke-width:5.507;stroke-linecap:round;stroke-linejoin:round;stroke-miterlimit:10;}
	.st18{fill:none;stroke:#C288DF;stroke-width:6.3844;stroke-linecap:round;stroke-linejoin:round;stroke-miterlimit:10;}
	.st19{fill:none;stroke:#99FFFF;stroke-width:5.7098;stroke-linecap:round;stroke-linejoin:round;stroke-miterlimit:10;}
	.st20{fill:none;stroke:#FF614D;stroke-width:5.7098;stroke-linecap:round;stroke-linejoin:round;stroke-miterlimit:10;}
	.st21{fill:none;stroke:#99FFFF;stroke-width:5.6394;stroke-linecap:round;stroke-linejoin:round;stroke-miterlimit:10;}
	.st22{fill:none;stroke:#FDF57A;stroke-width:7.5191;stroke-linecap:round;stroke-linejoin:round;stroke-miterlimit:10;}
	.st23{fill:none;stroke:#000000;stroke-width:1.6509;stroke-miterlimit:10;}
</style>
<g>
	<path class="st13" d="M150.1,48.3c-0.8-0.2-1.6-0.5-2.3-0.6c-15.7-3.5-31.1-2.5-46.1,3.5c-1,0.4-2.5,0.4-3.6,0.1
		c-10-3.2-20-3.4-30-0.2C67.1,51.3,66,51.2,65,51c-5.7-1.5-11.4-3.9-17.2-4.6c-7.3-0.9-14.7-0.7-22.1-0.4c-3.7,0.1-7.3,1.5-11.3,2.4
		c1,3.5,1.7,6.5,2.8,9.4c4,10.4,10.2,19.2,18.5,26.5c0.6,0.6,1.1,1.6,1.1,2.5c-0.1,7.5-0.4,14.9-0.4,22.4c0,1.3,0.7,3,1.7,3.9
		c8,7.3,16.1,14.3,24.2,21.6c1.4,1.3,2.6,3,3.4,4.7c4.2,8.4,9.6,15.8,17,22c6.3-5,11.2-11.2,15.4-17.9c2.5-4,3.5-8.7,7.4-12.1
		c7.4-6.4,14.5-13.2,21.7-19.9c0.7-0.6,1.4-1.6,1.4-2.4c0-6.6,0.1-13.1-0.2-19.7c-0.1-2.3,0.6-3.6,2.3-5
		c10.4-8.9,17.5-19.9,21.1-33.2C152.2,49.4,151.8,48.6,150.1,48.3z M101.1,61.9c0.3-0.2,1,0.1,1.4,0.3c7,4.1,12.1,9.8,15.1,17.3
		c0.6,1.5,0.3,2.3-1.1,3c-4.5,2.2-8.9,4.5-13.1,6.6c-4.2-7.2-8.2-13.8-12.4-21.1C94.2,66.2,97.7,64,101.1,61.9z M93.4,91.2
		c-7.3,1.6-13.6,1.7-20.7,0.1c3.6-5.5,7.1-10.7,10.5-16c0.4,0,0.7,0.1,1.1,0.1C87.2,80.6,90.2,85.7,93.4,91.2z M77.7,57.2
		c3.7,0,7.3,0,11,0c0.1,0.2,0.2,0.5,0.3,0.7c-1.8,1.3-3.6,2.7-5.5,4.1c-2-1.5-4-2.9-5.9-4.3C77.5,57.6,77.6,57.4,77.7,57.2z
		 M64.2,61.9c0.5-0.3,1.6-0.1,2.2,0.2c3.3,2.1,6.6,4.3,10,6.4c-3.2,4.8-6.2,9.2-9.2,13.6c-1.1,1.7-2,3.6-3.3,5.3
		c-0.5,0.6-1.9,1.2-2.4,0.9c-4.6-2.1-9.2-4.4-13.8-6.7C50.8,72.6,56.3,66.3,64.2,61.9z M27.1,55c9.6-1.4,18.6-0.6,28,2.2
		c-6.3,4.9-11.3,10.4-14.6,17.6C34.3,69.3,30.3,62.7,27.1,55z M120.2,105.6c0,0.7-0.3,1.5-0.7,1.9c-3.9,3.8-7.9,7.6-12.4,11.9
		c0-5.9,0-11.1,0-17.3c-3.6,2.4-6.5,4.2-9.3,6.3c-0.5,0.3-0.5,1.5-0.5,2.3c0,7-1.3,13.8-3.8,20.3c-0.3,0.8-0.7,1.7-1.3,2.3
		c-2.9,2.8-5.9,5.5-8.8,8.2c-7.5-3.9-11.2-10.2-12.5-18.2c-0.6-3.6-1-7.3-1.5-11c-0.1-0.7-0.3-1.7-0.8-2.1c-2.7-1.8-5.6-3.5-8.9-5.5
		c0,5.7,0,10.9,0,16.4c-4.6-4.2-9.1-8.3-13.5-12.4c-0.4-0.3-0.7-0.9-0.7-1.4c0-5.2,0-10.4,0-15.9c24.8,13.8,49.5,13.5,74.7,1.3
		C120.3,97.2,120.3,101.4,120.2,105.6z M125.7,76.2c-3.3-7.4-8-13.3-14.6-18.4c9.7-2.8,18.9-3.5,28.8-2
		C137.1,63.9,131.9,70.1,125.7,76.2z"/>
	<path class="st13" d="M60.1,27.3c2-0.3,3.8-0.5,3.3-3.4c-0.4-2.1-0.4-4.2-0.5-6.3c0.2-0.1,0.5-0.1,0.7-0.2c1.1,0.9,2.2,1.9,3.2,2.8
		c1.3,1.2,2.3,1,3.3-0.4c0.8-1.2,1.9-2.1,3.3-3.6c0.3,2.9,0.7,5,0.6,7.1c-0.1,2.9,1.7,2.7,3.7,2.7c2.3,0,2.6-1.3,2.4-3.1
		c-0.5-6.1-1-12.2-1.5-18.3c-0.1-0.7-0.5-1.8-0.9-1.9c-0.6-0.1-1.5,0.4-2,0.9c-0.6,0.5-1,1.2-1.5,1.9c-2.1,2.5-4.2,5-6.4,7.6
		c-3.1-2.9-5.8-5.5-8.6-8c-0.7-0.6-1.7-0.7-2.6-1c-0.2,0.8-0.6,1.6-0.5,2.4c0.4,6,0.8,12,1.2,18C57.2,26.6,57.9,27.6,60.1,27.3z"/>
	<path class="st13" d="M93.9,26.3c2.3,0.2,3.4-0.4,3.3-2.8c-0.1-2.3,0.9-3.4,3.3-2.8c0.5,0.1,1.1,0,1.6,0c5.2-0.2,8.2-3,8.7-8.1
		c0.5-4.2-2.2-7.9-6.8-9c-1.7-0.4-3.5-0.5-5.3-0.7c0,0,0,0.1,0,0.1c-0.5,0-1.1-0.1-1.6-0.1c-3.9-0.3-4-0.4-4.3,3.7
		c-0.5,5.4-0.8,10.8-1.4,16.1C91.2,24.8,91.4,26,93.9,26.3z M98.2,12.5c0.3-1.5-0.6-4,2.5-3.8c2,0.2,4.1,0.2,4.2,3.1
		c0,2.5-1,3.4-4,3.3C99.2,15.2,97.7,14.8,98.2,12.5z"/>
	<path class="st13" d="M162.1,18.3c-2.9-1.3-5.8-2.4-8.7-3.8c-1.8-0.9-2.6-0.3-3.3,1.3c-2.4,5.6-4.9,11.2-7.4,16.8
		c-0.8,1.7-0.4,2.7,1.2,3.5c3.1,1.4,6.2,2.8,9.3,4.2c1.8,0.9,2.6-0.1,3.3-1.6c0.7-1.6,0.8-2.7-1-3.5c-1.6-0.7-3.2-1.3-4.6-2.2
		c-0.5-0.4-0.5-1.8-0.3-2.7c0.1-0.4,1.5-0.8,2.1-0.6c1.8,0.5,3.5,1.4,5.3,2.2c2.9-4.3,2.9-4.4-1.4-6.4c-0.6-0.3-1.3-0.4-1.7-0.8
		c-0.5-0.6-0.7-1.4-1-2.1c0.7-0.3,1.6-0.9,2.2-0.7c1.2,0.3,2.3,1,3.4,1.5c1.6,0.8,2.9,1.2,4-0.9C164.6,20.2,164,19.1,162.1,18.3z"/>
	<path class="st13" d="M32.6,30.7c0.4,1.5,1.2,1.8,2.6,1.4c3.2-0.8,6.5-1.6,9.7-2.2c2.2-0.4,2.4-1.5,2-3.5c-0.4-2-1.4-2.5-3.2-1.9
		c-1.4,0.4-2.8,0.7-4.1,1.1c-1.6,0.5-2.1-0.3-2.4-1.6c-0.3-1.4,0.1-2.2,1.6-2.4c1-0.1,1.9-0.5,2.9-0.7c2.1-0.4,2.8-1.5,2.2-3.7
		c-0.5-2.2-1.9-2-3.5-1.6c-1,0.3-2,0.4-2.9,0.7c-1.3,0.5-2.3,0.4-2.3-1.1c0-0.7,0.9-1.8,1.6-2.1c1.3-0.6,2.8-0.6,4.2-1
		c1.5-0.4,2-1.5,1.5-2.9c-0.4-1-1-1.9-1.5-2.7c-4.5,1.1-8.3,2-12.1,3.1c-0.4,0.1-0.9,1.2-0.8,1.7C29.4,17.8,31,24.2,32.6,30.7z"/>
	<path class="st13" d="M17.6,38.7c2.1-1,1.8-2.3,1-4c-1.8-3.6-3.5-7.3-5.4-10.9c-1-2-0.6-3.1,1.4-4c0.8-0.3,1.4-1.1,1.8-1.4
		c0-3.3-1.7-4.5-4.2-3.3C8.4,17,4.6,18.8,0.9,20.8c-0.6,0.3-1.1,1.8-0.9,2.5c1,2.9,1.5,3.2,4.3,1.7c1.9-1,2.7-0.5,3.5,1.3
		c1.7,3.8,3.8,7.4,5.3,11.2C14.2,40,15.6,39.6,17.6,38.7z"/>
	<path class="st13" d="M121.2,29.6c2.9,0.6,5.8,1.1,8.7,1.9c2,0.5,3.2,0.5,3.8-1.8c0.6-2.4-0.4-3.3-2.6-3.6
		c-0.7-0.1-1.4-0.3-2.1-0.4c-2.2-0.3-3.1-1.2-2.5-3.6c1-3.6,1.7-7.3,2.5-11c1.1-4.6-0.1-4-4.1-4.8c-0.4,0.4-1.2,1-1.4,1.8
		c-1.5,6.3-2.8,12.6-4.3,18.9C119.1,28.7,119.8,29.3,121.2,29.6z"/>
</g>
</svg>
