<?xml version="1.0" encoding="utf-8"?>
<!-- Generator: Adobe Illustrator 23.0.5, SVG Export Plug-In . SVG Version: 6.00 Build 0)  -->
<svg version="1.1" id="Capa_1" xmlns="http://www.w3.org/2000/svg" xmlns:xlink="http://www.w3.org/1999/xlink" x="0px" y="0px"
	 viewBox="0 0 260.1 136.9" style="enable-background:new 0 0 260.1 136.9;" xml:space="preserve">
<style type="text/css">
	.st0{fill:none;stroke:#000000;stroke-width:0.8513;stroke-miterlimit:10;}
	.st1{fill:none;stroke:#C288DF;stroke-width:4;stroke-linecap:round;stroke-linejoin:round;stroke-miterlimit:10;}
	.st2{fill:none;stroke:#000000;stroke-miterlimit:10;}
	.st3{fill:none;stroke:#99FFFF;stroke-width:3;stroke-linecap:round;stroke-linejoin:round;stroke-miterlimit:10;}
	.st4{fill:none;stroke:#99FFFF;stroke-width:4;stroke-linecap:round;stroke-linejoin:round;stroke-miterlimit:10;}
	.st5{fill:none;stroke:#FDF57A;stroke-width:4;stroke-linecap:round;stroke-linejoin:round;stroke-miterlimit:10;}
	.st6{fill:none;stroke:#FF614D;stroke-width:4;stroke-linecap:round;stroke-linejoin:round;stroke-miterlimit:10;}
	.st7{fill:none;stroke:#39B54A;stroke-width:4;stroke-linecap:round;stroke-linejoin:round;stroke-miterlimit:10;}
	.st8{fill:none;stroke:#000000;stroke-width:1.8406;stroke-miterlimit:10;}
	.st9{fill:none;stroke:#000000;stroke-width:0.8409;stroke-linecap:round;stroke-miterlimit:10;}
	.st10{fill:none;stroke:#000000;stroke-width:3;stroke-linecap:round;stroke-miterlimit:10;}
	.st11{fill:none;stroke:#99FFFF;stroke-width:6.6043;stroke-linecap:round;stroke-linejoin:round;stroke-miterlimit:10;}
	.st12{fill:none;stroke:#99FFFF;stroke-width:6.9442;stroke-linecap:round;stroke-linejoin:round;stroke-miterlimit:10;}
	.st13{fill:#FFFFFF;}
	.st14{fill:none;stroke:#000000;stroke-width:4.3705;stroke-linecap:round;stroke-miterlimit:10;}
	.st15{fill:none;stroke:#C288DF;stroke-width:4.6373;stroke-linecap:round;stroke-linejoin:round;stroke-miterlimit:10;}
	.st16{fill:none;stroke:#99FFFF;stroke-width:4.1303;stroke-linecap:round;stroke-linejoin:round;stroke-miterlimit:10;}
	.st17{fill:none;stroke:#FDF57A;stroke-width:5.507;stroke-linecap:round;stroke-linejoin:round;stroke-miterlimit:10;}
	.st18{fill:none;stroke:#C288DF;stroke-width:6.3844;stroke-linecap:round;stroke-linejoin:round;stroke-miterlimit:10;}
	.st19{fill:none;stroke:#99FFFF;stroke-width:5.7098;stroke-linecap:round;stroke-linejoin:round;stroke-miterlimit:10;}
	.st20{fill:none;stroke:#FF614D;stroke-width:5.7098;stroke-linecap:round;stroke-linejoin:round;stroke-miterlimit:10;}
	.st21{fill:none;stroke:#99FFFF;stroke-width:5.6394;stroke-linecap:round;stroke-linejoin:round;stroke-miterlimit:10;}
	.st22{fill:none;stroke:#FDF57A;stroke-width:7.5191;stroke-linecap:round;stroke-linejoin:round;stroke-miterlimit:10;}
	.st23{fill:none;stroke:#000000;stroke-width:1.6509;stroke-miterlimit:10;}
</style>
<g>
	<path class="st13" d="M65.7,50c-1.6,0.2-2.5,0.3-4.1,0.5c0,8,0,17.2,0,25.1c1.4-0.2,2.1-0.3,3.5-0.5c3-0.3,4.4-1.7,4.4-4.1
		c0.2-3.2,0.2-6,0.3-9.3c0-0.5,0-0.8,0-1.3c0-3-0.3-8.5-0.8-9.5C68.5,50.1,67.4,49.8,65.7,50z"/>
	<path class="st13" d="M102.8,43.7c-1.4,15.6-3,31.2-4.4,46.8c4.1-0.8,6.2-1.3,10.3-2c-1.6-15-3.3-30-5.1-44.9L102.8,43.7z"/>
	<path class="st13" d="M29,53.1c-1.4,0.2-2.2,0.2-3.6,0.2c-0.2,8.2-0.2,16.6-0.2,24.8c1.3,0,2.1,0,3.3,0c0.9,0,1.7,0,2.4-0.2
		c0.8-0.3,1.3-0.6,1.6-1.1c0.3-0.5,0.6-1.3,0.8-2.2c0.2-0.9,0.3-2.2,0.3-3.8c0-4.4,0-6.9,0-11.4c0-2.8-0.3-4.6-0.9-5.4
		C32,53.4,30.7,53.1,29,53.1z"/>
	<path class="st13" d="M29.3,88.4c-1.6,0-2.5,0-4.3,0c0,8-0.2,17.3,0,25.5c1.4,0,2.4,0,3.8,0c1.1,0,1.9-0.2,2.5-0.3
		c0.6-0.2,1.1-0.6,1.4-1.1c0.3-0.6,0.5-1.4,0.6-2.4c0.2-0.9,0.2-2,0.2-3.6c0-3.8,0-7.3,0-11c0-3-0.3-4.9-0.8-5.8
		C32.3,88.9,31,88.4,29.3,88.4z"/>
	<path class="st13" d="M0.1,30.9v104.2c95.6,8.7,169.4-36.1,260-29.3V1.9C168.5-5.9,90.5,35.9,0.1,30.9z M45.4,110.5
		c0.5,8.5-5.1,14.3-14.4,14.5c-7.3,0.2-11.7,0.2-18.8-0.5c0.3-27.4,0.6-55.7,0.8-82.6c7.9,0,11.7-0.2,19.6-0.5
		c4.4-0.2,7.6,0.6,9.6,2.4c2.1,1.9,3,4.7,3,9c0,7.9,0,12,0,19.9c0,3-0.6,5.2-2.1,6.8c-1.3,1.6-3.6,2.7-7,3.5
		c1.7,0.3,3.3,0.8,4.4,1.3c1.3,0.5,2.2,1.1,2.8,1.7c0.6,0.8,1.1,1.6,1.4,2.7c0.3,1.1,0.5,1.3,0.5,2.8
		C45.4,98.5,45.4,103.3,45.4,110.5z M81.6,88.4c0,7.4,0,21.1,0,31.9c-4,0.6-7.9,1.3-12,1.7c0-10.6,0-23.5,0-31.2
		c0-2-0.3-3.3-0.9-4.1c-0.6-0.6-1.7-0.9-3.2-0.8c-1.7,0.2-2.4,0.3-4,0.5c0,9.5,0,24.4-0.5,36.7c-4,0.3-7.9,0.8-12,1.1
		c0.2-26.2,0-59.1,0.2-83.7c7.4-0.8,11.1-1.3,18.5-2.4c1.4-0.2,2.1-0.3,3.5-0.5c0.8,0,1.6,0,2.5,0c0.9,0,1.7,0.2,2.5,0.5
		c1.4,0.5,2.7,1.4,3.6,2.7c0.6,0.9,1.1,1.9,1.3,2.8c0.2,0.9,0.3,2.7,0.3,4.9c0,8.2,0,12,0,20c0,3.5-0.3,6-1.3,7.6
		c-0.8,1.6-2.5,3-5.1,4.3c4.3,0,6.5,2.5,6.5,7.9C81.6,88.3,81.6,88.3,81.6,88.4z M111.5,114.4c-0.6-5-1.1-8.7-1.7-13.9
		c-5.2,1.1-7.7,1.6-12.8,2.5c-0.6,5.4-0.9,9.3-1.6,14.5c-4.1,0.8-8.1,1.6-12.2,2.2c3-28.1,6.2-57.9,9.2-85.9
		c7.4-1.4,14.5-2.8,22-4.4c3.2,27,6.3,55.3,9.3,82.3C119.5,112.7,115.6,113.7,111.5,114.4z M157.3,104.4c-4,0.9-8.1,1.7-12,2.7
		c0-11.7,0-26.5,0-36.3c-3.3,0.8-4.9,1.1-8.1,1.7c-0.2,9.8-0.2,24.6-0.3,36.3c-4,0.9-8.1,1.7-12,2.7c0-26.5,0.2-59,0.2-84.2
		c4.9-0.9,7.3-1.6,12.2-2.5c0,11.5,0,23.8,0,35.3c3.3-0.8,4.9-1.1,8.1-1.7c0.2-11.5,0.2-23.8,0.2-35.3c4.9-0.9,7.3-1.4,12.2-2.4
		C157.5,45.9,157.5,77.9,157.3,104.4z M208,96c-4,0.5-8.1,0.9-12,1.6c0.2-15.5,0.2-32.6,0.3-47.5h-0.2c-3.8,18.8-5.8,31.9-8.7,48.7
		c-2.1,0.3-4,0.6-5.8,0.9c-2.7-16.6-4.9-30.3-7.9-47h-0.2c0,14.8-0.2,32.8-0.2,48.4c-4.1,0.8-8.2,1.7-12.3,2.5
		c0.2-26.5,0.2-58,0.3-83.6c5.8-1.1,8.7-1.6,14.4-2.5c3,13.6,6,27.8,9,41.3c3.2-14.5,6.2-29.5,9.3-44c5.8-0.8,8.7-1.1,14.5-1.6
		C208.5,38.8,208.2,69.7,208,96z M237.3,94.1c-0.5-5.2-0.8-8-1.4-13.4c-5.1,0-7.6,0.2-12.6,0.5c-0.6,5.4-0.9,8.4-1.6,13.6
		c-4.1,0.3-8.1,0.6-12,1.1c3.2-27.8,6.3-55.7,9.5-83.3c7.1-0.5,14.5-0.5,21.8-0.5c2.8,27.4,5.7,54.9,8.4,82.1
		C245.3,94.1,241.2,94.1,237.3,94.1z"/>
	<path class="st13" d="M229.5,22.7c-1.7,15.8-3.3,30.4-4.9,46.2c4.1-0.2,6.2-0.3,10.3-0.3c-1.6-15.6-3.2-30.3-4.7-45.9H229.5z"/>
</g>
</svg>
